<svg xmlns="http://www.w3.org/2000/svg" xmlns:se="http://svg-edit.googlecode.com" xmlns:xlink="http://www.w3.org/1999/xlink" xmlns:dc="http://purl.org/dc/elements/1.1/" xmlns:cc="http://creativecommons.org/ns#" xmlns:rdf="http://www.w3.org/1999/02/22-rdf-syntax-ns#" xmlns:inkscape="http://www.inkscape.org/namespaces/inkscape" width="777" height="480" style="">                                    <title>my vector image</title>                                    <!-- Created with Vector Paint - http://www.vectorpaint.yaks.com/ https://chrome.google.com/webstore/detail/hnbpdiengicdefcjecjbnjnoifekhgdo -->                                    <rect id="backgroundrect" width="100%" height="100%" x="0" y="0" fill="#FFFFFF" stroke="none"/>                                <g class="currentLayer" style=""><title>Layer 1</title><polyline fill="none" stroke="#000000" stroke-width="2" stroke-linejoin="round" stroke-dashoffset="" fill-rule="nonzero" marker-start="" marker-mid="" marker-end="" id="svg_1" points="500.4903119059764,118.75268988389335 498.33977428810744,116.06451786155714 497.8021398836402,115.52688345708988 497.2645054791729,114.45161464815538 495.11396786130393,112.83871143475365 492.42579583896776,111.22580822135191 488.1247206032297,109.07527060348292 481.6731077496228,106.38709858114669 472.53332287367965,103.16129215434322 456.40429073966226,98.86021691860525 444.5763338413828,96.70967930073625 434.3612801565051,95.09677608733452 426.29676408949643,94.02150727840002 418.76988242695495,94.02150727840002 410.70536635994625,94.02150727840002 403.1784846974048,94.55914168286726 395.6516030348634,96.70967930073625 387.5870869678547,97.78494810967075 380.0602053053132,99.3978513230725 372.5333236427718,101.54838894094148 360.1677323400251,106.92473298561394 353.71611948641817,109.61290500795016 347.2645066328112,112.83871143475365 341.3505281836715,115.52688345708988 337.5870873524008,118.21505547942611 333.82364652113006,120.90322750176234 331.1354744987938,123.59139952409858 328.4473024764576,125.74193714196757 326.29676485858863,127.35484035536929 324.6838616451869,130.0430123777055 323.6085928362524,132.19354999557453 322.53332402731786,133.80645320897622 322.53332402731786,134.88172201791076 322.53332402731786,135.41935642237797 321.99568962285065,135.95699082684524 321.4580552183834,136.49462523131245 321.4580552183834,137.569894040247 320.92042081391617,138.64516284918147 320.92042081391617,140.25806606258323 319.8451520049816,142.4086036804522 318.76988319604715,144.02150689385394 318.23224879157993,146.70967891619017 316.6193455781782,148.86021653405913 316.0817111737109,151.54838855639537 314.46880796030916,155.84946379213335 312.85590474690747,159.07527021893685 312.3182703424402,161.76344224127308 311.2430015335057,164.45161426360932 309.63009832010397,167.13978628594558 308.0171951067022,171.97849592615074 306.4042918933005,178.4301087797577 305.32902308436593,184.88172163336463 304.2537542754315,190.2580656780371 304.2537542754315,196.17204412717683 304.2537542754315,202.62365698078378 304.2537542754315,208.5376354299235 304.7913886798988,220.36559232820292 307.479560702235,228.96774279967886 310.1677327245712,235.95699005775305 313.3935391513747,242.94623731582726 317.1569799826454,249.3978501694342 320.3827864094489,254.77419421410667 322.53332402731786,258.0000006409102 323.6085928362524,259.6129038543119 324.1462272407196,260.6881726632464 324.1462272407196,261.2258070677136 325.2214960496541,261.7634414721809 328.98493688092486,264.4516134945171 336.5118185434663,267.6774199213206 345.1139690149422,271.44086075259133 352.6408506774837,275.20430158386205 359.6300979355579,277.8924736061983 366.61934519363206,280.5806456285345 373.6085924517062,282.19354884193626 384.3612805410512,284.8817208642725 392.4257966080599,286.49462407767413 400.4903126750686,288.1075272910759 408.01719433761,288.6451616955432 414.468807191217,289.72043050447763 421.4580544492912,289.72043050447763 430.5978393252344,289.72043050447763 439.1999897967103,289.72043050447763 448.3397746726535,289.72043050447763 457.4795595485967,289.72043050447763 467.1569788290072,289.72043050447763 475.22149489601577,288.1075272910759 484.361279771959,285.4193552687397 489.73762381663147,284.3440864598052 495.11396786130393,282.19354884193626 499.9526775015092,280.04301122406724 505.86665595064886,277.354839201731 510.7053655908541,274.12903277492757 516.0817096355265,270.36559194365685 520.9204192757318,266.6021511123861 524.1462257025353,263.37634468558264 527.3720321293388,259.6129038543119 529.5225697472076,256.3870974275084 533.2860105784785,249.93548457390148 535.9741826008146,244.559140529229 538.6623546231508,240.25806529349103 540.2752578365526,237.03225886668753 541.3505266454872,233.8064524398841 542.963429858889,230.5806460130806 544.0386986678234,226.2795707773426 545.6516018812251,221.97849554160467 546.7268706901596,217.6774203058667 547.802139499094,212.83871066566144 548.8774083080286,207.46236662098897 549.9526771169631,203.16129138525105 550.4903115214304,198.8602161495131 551.0279459258975,192.94623770037333 551.0279459258975,188.64516246463535 551.0279459258975,184.34408722889742 551.0279459258975,180.58064639762665 551.0279459258975,175.74193675742146 551.0279459258975,171.97849592615074 551.0279459258975,168.21505509488003 551.0279459258975,164.98924866807653 550.4903115214304,162.83871105020756 550.4903115214304,160.15053902787133 550.4903115214304,157.4623670055351 550.4903115214304,154.77419498319887 549.9526771169631,150.47311974746088 549.9526771169631,146.1720445117229 549.4150427124957,142.4086036804522 548.8774083080286,139.1827972536487 548.3397739035613,136.49462523131245 547.802139499094,133.268818804509 547.2645050946269,129.5053779732383 546.1892362856925,125.2043027375003 546.1892362856925,122.51613071516407 545.1139674767578,120.3655930972951 544.5763330722907,118.75268988389335 544.5763330722907,117.67742107495889 544.0386986678234,116.60215226602436 543.501064263356,115.52688345708988 543.501064263356,114.98924905262264 543.501064263356,114.45161464815538 " style="color: rgb(0, 0, 0);"/><polyline fill="none" stroke="#990000" stroke-width="2" stroke-linejoin="round" stroke-dashoffset="" fill-rule="nonzero" marker-start="" marker-mid="" marker-end="" id="svg_2" points="440.27525860564486,132.73118440004174 439.73762420117754,131.65591559110726 438.6623553922431,130.58064678217278 437.04945217884136,130.58064678217278 434.8989145609724,130.58064678217278 432.2107425386361,130.58064678217278 427.9096673028982,130.58064678217278 423.6085920671602,130.58064678217278 420.3827856403567,132.19354999557453 418.23224802248774,133.268818804509 417.15697921355326,134.3440876134435 416.619344809086,135.41935642237797 416.0817104046187,137.569894040247 415.5440760001515,139.72043165811596 415.5440760001515,141.87096927598492 415.5440760001515,145.09677570278842 416.619344809086,147.78494772512465 418.23224802248774,150.47311974746088 420.3827856403567,152.62365736532985 424.1462264716274,153.6989261742644 427.9096673028982,153.6989261742644 432.7483769431034,153.6989261742644 438.1247209877758,152.08602296086264 443.50106503244825,149.93548534299362 447.8021402681863,147.78494772512465 449.95267788605526,146.1720445117229 451.0279466949898,144.55914129832115 451.565581099457,140.25806606258323 451.565581099457,137.03225963577972 450.49031229052247,133.268818804509 448.8774090771207,130.0430123777055 448.3397746726535,128.96774356877103 447.8021402681863,128.96774356877103 " style="color: rgb(0, 0, 0);"/><polyline fill="none" stroke="#990000" stroke-width="2" stroke-linejoin="round" stroke-dashoffset="" fill-rule="nonzero" marker-start="" marker-mid="" marker-end="" id="svg_3" points="412.8559039778153,212.83871066566144 412.8559039778153,212.30107626119423 412.8559039778153,210.1505386433252 412.8559039778153,206.3870978120545 412.8559039778153,203.69892578971826 412.8559039778153,199.93548495844755 412.8559039778153,195.09677531824235 412.8559039778153,192.40860329590612 412.8559039778153,189.18279686910262 412.8559039778153,186.49462484676638 412.8559039778153,182.73118401549567 412.8559039778153,178.96774318422496 412.8559039778153,175.74193675742146 412.8559039778153,173.05376473508522 412.8559039778153,170.90322711721626 413.93117278674976,169.2903239038145 415.00644159568424,167.67742069041276 417.15697921355326,165.52688307254382 419.8451512358895,164.45161426360932 421.4580544492912,163.91397985914207 423.6085920671602,163.37634545467478 425.75912968502917,162.83871105020756 426.83439849396365,162.83871105020756 428.4473017073654,162.83871105020756 429.5225705162999,162.83871105020756 430.5978393252344,163.37634545467478 432.7483769431034,164.98924866807653 434.8989145609724,166.60215188147828 436.51181777437415,168.21505509488003 438.6623553922431,170.90322711721626 440.27525860564486,174.1290335440197 442.4257962235138,178.96774318422496 443.50106503244825,182.1935496110284 445.11396824585,185.95699044229912 446.18923705478454,189.18279686910262 446.72687145925175,192.40860329590612 447.2645058637191,196.17204412717683 448.8774090771207,201.01075376738203 449.41504348158804,206.92473221652176 449.41504348158804,214.4516138790632 449.41504348158804,216.6021514969322 449.41504348158804,219.82795792373565 449.41504348158804,224.6666675639409 449.41504348158804,227.89247399074435 449.41504348158804,231.65591482201506 449.41504348158804,234.88172124881856 448.8774090771207,237.5698932711548 448.8774090771207,238.64516208008928 448.3397746726535,239.72043088902376 447.8021402681863,240.25806529349103 446.72687145925175,241.3333341024255 445.11396824585,242.40860291136 444.0386994369156,242.40860291136 442.96343062798104,242.94623731582726 440.27525860564486,242.94623731582726 438.6623553922431,243.48387172029453 437.04945217884136,243.48387172029453 435.4365489654396,243.48387172029453 433.82364575203786,243.48387172029453 432.7483769431034,243.48387172029453 431.6731081341689,243.48387172029453 430.06020492076715,243.48387172029453 429.5225705162999,243.48387172029453 428.98493611183267,243.48387172029453 428.4473017073654,243.48387172029453 427.9096673028982,243.48387172029453 427.3720328984309,243.48387172029453 426.83439849396365,243.48387172029453 424.6838608760947,242.94623731582726 423.07095766269293,242.40860291136 420.92042004482397,241.87096850689278 418.76988242695495,240.25806529349103 417.69461361802047,240.25806529349103 416.619344809086,239.72043088902376 416.0817104046187,239.18279648455655 415.5440760001515,238.64516208008928 413.3935383822825,237.5698932711548 412.318269573348,237.03225886668753 411.78063516888074,235.95699005775305 410.70536635994625,234.88172124881856 410.70536635994625,234.3440868443513 409.6300975510118,233.2688180354168 409.09246314654456,231.65591482201506 408.01719433761,229.5053772041461 407.4795599331428,227.3548395862771 406.9419255286755,225.7419363728754 406.4042911242083,223.59139875500637 406.4042911242083,220.90322673267013 405.86665671974106,217.6774203058667 405.32902231527373,215.52688268799767 404.7913879108066,213.3763450701287 404.7913879108066,212.83871066566144 " style="color: rgb(0, 0, 0);"/><polyline fill="none" stroke="#ebeb1a" stroke-width="2" stroke-linejoin="round" stroke-dashoffset="" fill-rule="nonzero" marker-start="" marker-mid="" marker-end="" id="svg_4" points="417.69461361802047,176.27957116188873 417.69461361802047,175.20430235295424 418.76988242695495,174.66666794848697 419.3075168314222,174.66666794848697 420.3827856403567,174.1290335440197 421.99568885375845,173.5913991395525 424.1462264716274,172.516130330618 425.75912968502917,171.97849592615074 426.83439849396365,170.90322711721626 427.9096673028982,170.90322711721626 428.4473017073654,170.365592712749 428.98493611183267,170.365592712749 430.06020492076715,170.365592712749 430.5978393252344,170.365592712749 430.06020492076715,170.365592712749 429.5225705162999,170.365592712749 429.5225705162999,170.90322711721626 428.98493611183267,171.44086152168347 427.9096673028982,173.05376473508522 426.83439849396365,174.1290335440197 426.29676408949643,175.20430235295424 425.75912968502917,175.74193675742146 425.22149528056195,176.81720556635594 424.1462264716274,177.89247437529048 424.1462264716274,178.4301087797577 423.6085920671602,179.50537758869217 423.6085920671602,180.04301199315944 422.5333232582257,180.58064639762665 422.5333232582257,181.11828080209392 421.99568885375845,181.6559152065612 421.99568885375845,182.1935496110284 421.4580544492912,182.73118401549567 420.92042004482397,183.26881841996288 420.92042004482397,183.80645282443015 420.3827856403567,183.80645282443015 420.3827856403567,184.34408722889742 419.8451512358895,184.88172163336463 419.8451512358895,185.4193560378319 419.3075168314222,185.4193560378319 419.3075168314222,186.49462484676638 419.3075168314222,187.03225925123365 418.76988242695495,187.03225925123365 418.76988242695495,187.56989365570087 419.3075168314222,187.56989365570087 420.92042004482397,187.56989365570087 423.6085920671602,186.49462484676638 426.83439849396365,185.4193560378319 428.4473017073654,184.34408722889742 429.5225705162999,184.34408722889742 430.06020492076715,183.80645282443015 431.13547372970163,183.26881841996288 434.3612801565051,182.73118401549567 435.9741833699068,182.1935496110284 437.5870865833086,182.1935496110284 438.1247209877758,181.6559152065612 438.1247209877758,182.1935496110284 438.1247209877758,182.73118401549567 437.04945217884136,183.80645282443015 435.9741833699068,184.34408722889742 435.4365489654396,185.4193560378319 434.3612801565051,186.49462484676638 433.82364575203786,187.56989365570087 432.2107425386361,189.18279686910262 430.5978393252344,191.33333448697158 428.98493611183267,192.94623770037333 427.9096673028982,194.55914091377508 426.29676408949643,195.6344097227096 425.75912968502917,196.70967853164404 424.6838608760947,197.24731293611134 424.1462264716274,198.3225817450458 423.6085920671602,199.39785055398028 423.07095766269293,200.47311936291484 422.5333232582257,201.01075376738203 421.99568885375845,201.5483881718493 421.4580544492912,202.0860225763165 420.92042004482397,203.16129138525105 420.3827856403567,203.69892578971826 420.3827856403567,204.23656019418553 419.8451512358895,204.23656019418553 420.92042004482397,203.69892578971826 423.6085920671602,202.62365698078378 426.83439849396365,201.5483881718493 430.06020492076715,199.93548495844755 431.6731081341689,198.8602161495131 433.82364575203786,197.78494734057858 434.8989145609724,197.24731293611134 437.04945217884136,196.70967853164404 438.6623553922431,196.17204412717683 440.27525860564486,195.6344097227096 441.3505274145793,195.09677531824235 441.8881618190466,195.09677531824235 441.8881618190466,195.6344097227096 441.3505274145793,196.17204412717683 440.27525860564486,197.24731293611134 438.6623553922431,199.39785055398028 437.04945217884136,201.5483881718493 434.8989145609724,203.16129138525105 432.7483769431034,204.77419459865274 430.5978393252344,206.92473221652176 428.4473017073654,208.5376354299235 426.83439849396365,210.1505386433252 425.75912968502917,211.76344185672696 424.1462264716274,213.3763450701287 423.07095766269293,213.91397947459598 422.5333232582257,214.98924828353046 421.99568885375845,215.52688268799767 420.92042004482397,216.06451709246494 420.3827856403567,217.13978590139942 419.8451512358895,218.2150547103339 419.3075168314222,218.75268911480117 419.3075168314222,219.29032351926844 419.3075168314222,219.82795792373565 418.76988242695495,220.36559232820292 418.23224802248774,220.36559232820292 418.76988242695495,220.36559232820292 420.3827856403567,219.82795792373565 423.07095766269293,218.2150547103339 426.83439849396365,215.52688268799767 428.98493611183267,214.4516138790632 431.6731081341689,212.83871066566144 433.82364575203786,211.76344185672696 435.4365489654396,211.22580745225974 437.04945217884136,210.1505386433252 438.6623553922431,210.1505386433252 439.73762420117754,209.612904238858 440.8128930101121,209.07526983439072 441.3505274145793,208.5376354299235 441.3505274145793,209.07526983439072 440.8128930101121,209.612904238858 439.73762420117754,211.76344185672696 437.5870865833086,213.91397947459598 434.8989145609724,217.13978590139942 432.7483769431034,219.82795792373565 430.5978393252344,221.4408611371374 429.5225705162999,223.05376435053915 427.9096673028982,224.12903315947364 426.83439849396365,225.7419363728754 426.29676408949643,226.81720518180987 425.22149528056195,227.89247399074435 425.22149528056195,228.43010839521162 424.6838608760947,228.43010839521162 424.6838608760947,228.96774279967886 424.1462264716274,229.5053772041461 424.1462264716274,230.0430116086133 424.1462264716274,230.5806460130806 428.98493611183267,229.5053772041461 432.7483769431034,227.3548395862771 435.9741833699068,225.7419363728754 437.5870865833086,224.6666675639409 438.1247209877758,224.6666675639409 438.6623553922431,224.12903315947364 439.1999897967103,224.12903315947364 439.73762420117754,224.12903315947364 439.73762420117754,224.6666675639409 439.73762420117754,225.20430196840812 439.1999897967103,225.7419363728754 437.5870865833086,226.81720518180987 435.9741833699068,228.43010839521162 434.8989145609724,229.5053772041461 433.28601134757065,231.11828041754785 432.7483769431034,231.65591482201506 431.6731081341689,232.73118363094954 430.5978393252344,234.3440868443513 430.06020492076715,234.88172124881856 429.5225705162999,235.41935565328578 430.06020492076715,235.41935565328578 431.13547372970163,235.41935565328578 432.2107425386361,235.41935565328578 435.9741833699068,235.41935565328578 441.3505274145793,233.2688180354168 443.50106503244825,231.65591482201506 444.5763338413828,230.5806460130806 445.11396824585,230.5806460130806 445.11396824585,231.11828041754785 445.11396824585,231.65591482201506 444.0386994369156,231.65591482201506 444.0386994369156,232.19354922648236 441.8881618190466,232.73118363094954 439.73762420117754,233.8064524398841 437.5870865833086,234.3440868443513 434.8989145609724,234.88172124881856 433.82364575203786,235.41935565328578 432.7483769431034,235.41935565328578 432.2107425386361,235.41935565328578 431.6731081341689,235.41935565328578 430.5978393252344,235.41935565328578 430.06020492076715,235.41935565328578 430.06020492076715,234.88172124881856 430.5978393252344,234.3440868443513 431.6731081341689,233.2688180354168 433.82364575203786,231.11828041754785 435.9741833699068,229.5053772041461 437.04945217884136,228.43010839521162 437.5870865833086,227.3548395862771 437.5870865833086,226.81720518180987 437.04945217884136,226.81720518180987 435.4365489654396,226.81720518180987 430.5978393252344,228.43010839521162 424.1462264716274,230.0430116086133 418.76988242695495,231.11828041754785 416.0817104046187,231.65591482201506 415.5440760001515,231.65591482201506 415.5440760001515,231.11828041754785 415.5440760001515,230.0430116086133 417.69461361802047,228.43010839521162 421.99568885375845,225.20430196840812 426.29676408949643,223.05376435053915 428.4473017073654,220.90322673267013 430.5978393252344,219.29032351926844 431.13547372970163,219.29032351926844 430.5978393252344,219.29032351926844 429.5225705162999,219.29032351926844 423.6085920671602,221.4408611371374 419.8451512358895,223.59139875500637 416.619344809086,224.6666675639409 415.00644159568424,225.20430196840812 415.00644159568424,225.7419363728754 415.00644159568424,225.20430196840812 416.619344809086,224.12903315947364 421.99568885375845,219.82795792373565 428.4473017073654,215.52688268799767 435.9741833699068,210.1505386433252 439.1999897967103,206.92473221652176 440.27525860564486,205.84946340758728 440.8128930101121,205.84946340758728 440.8128930101121,206.3870978120545 439.1999897967103,207.46236662098897 435.9741833699068,210.1505386433252 432.2107425386361,213.3763450701287 428.4473017073654,215.52688268799767 426.83439849396365,217.13978590139942 425.75912968502917,218.2150547103339 425.22149528056195,218.2150547103339 426.29676408949643,217.13978590139942 427.3720328984309,214.98924828353046 431.13547372970163,212.30107626119423 435.4365489654396,209.612904238858 438.1247209877758,207.46236662098897 439.1999897967103,206.3870978120545 439.73762420117754,206.3870978120545 439.1999897967103,206.3870978120545 438.6623553922431,206.3870978120545 437.04945217884136,206.92473221652176 432.7483769431034,208.5376354299235 428.4473017073654,210.68817304779247 425.22149528056195,211.76344185672696 423.07095766269293,213.3763450701287 421.99568885375845,213.91397947459598 421.4580544492912,214.4516138790632 421.4580544492912,213.91397947459598 421.4580544492912,213.3763450701287 423.07095766269293,210.68817304779247 428.4473017073654,205.31182900312 430.5978393252344,202.0860225763165 432.2107425386361,199.39785055398028 433.28601134757065,198.3225817450458 433.82364575203786,197.78494734057858 433.28601134757065,197.78494734057858 432.2107425386361,198.3225817450458 428.98493611183267,199.93548495844755 424.6838608760947,203.16129138525105 420.92042004482397,205.31182900312 418.76988242695495,206.92473221652176 418.23224802248774,206.92473221652176 418.23224802248774,206.3870978120545 418.23224802248774,205.31182900312 420.92042004482397,201.5483881718493 424.6838608760947,196.70967853164404 427.3720328984309,192.94623770037333 430.06020492076715,190.2580656780371 431.13547372970163,188.64516246463535 431.13547372970163,188.10752806016814 430.06020492076715,188.64516246463535 429.5225705162999,189.7204312735699 426.29676408949643,191.87096889143885 424.6838608760947,193.4838721048406 423.6085920671602,194.02150650930784 423.07095766269293,194.55914091377508 423.07095766269293,195.09677531824235 423.07095766269293,194.55914091377508 423.07095766269293,194.02150650930784 423.07095766269293,190.79570008250437 424.6838608760947,187.56989365570087 426.29676408949643,184.34408722889742 427.3720328984309,182.1935496110284 427.9096673028982,181.11828080209392 427.9096673028982,181.6559152065612 426.83439849396365,182.73118401549567 425.22149528056195,183.80645282443015 422.5333232582257,185.95699044229912 419.3075168314222,187.56989365570087 417.69461361802047,188.64516246463535 417.15697921355326,188.64516246463535 417.15697921355326,188.10752806016814 418.23224802248774,186.49462484676638 419.8451512358895,184.34408722889742 421.99568885375845,181.11828080209392 424.6838608760947,177.89247437529048 425.22149528056195,177.3548399708232 425.22149528056195,176.81720556635594 425.22149528056195,177.3548399708232 424.1462264716274,177.89247437529048 423.07095766269293,178.96774318422496 421.99568885375845,180.04301199315944 421.4580544492912,180.04301199315944 420.92042004482397,180.58064639762665 420.92042004482397,179.50537758869217 420.92042004482397,176.81720556635594 421.4580544492912,173.5913991395525 421.4580544492912,170.90322711721626 421.99568885375845,169.82795830828178 421.99568885375845,170.365592712749 421.4580544492912,170.90322711721626 420.92042004482397,171.97849592615074 420.3827856403567,172.516130330618 419.8451512358895,172.516130330618 419.3075168314222,172.516130330618 " style="color: rgb(0, 0, 0);"/><polyline fill="none" stroke="#ebeb1a" stroke-width="2" stroke-linejoin="round" stroke-dashoffset="" fill-rule="nonzero" marker-start="" marker-mid="" marker-end="" id="svg_5" points="423.07095766269293,135.95699082684524 422.5333232582257,137.569894040247 421.99568885375845,138.1075284447142 421.99568885375845,138.64516284918147 421.4580544492912,139.72043165811596 421.4580544492912,140.25806606258323 421.4580544492912,140.79570046705044 421.4580544492912,140.25806606258323 421.4580544492912,139.72043165811596 421.99568885375845,139.1827972536487 422.5333232582257,138.64516284918147 423.07095766269293,138.1075284447142 423.6085920671602,137.569894040247 424.1462264716274,137.03225963577972 424.6838608760947,137.03225963577972 424.6838608760947,137.569894040247 424.1462264716274,138.64516284918147 423.6085920671602,138.64516284918147 423.07095766269293,140.79570046705044 421.99568885375845,141.87096927598492 421.4580544492912,142.4086036804522 420.92042004482397,142.94623808491946 420.92042004482397,143.48387248938667 420.92042004482397,142.94623808491946 421.4580544492912,142.4086036804522 422.5333232582257,140.79570046705044 423.6085920671602,138.64516284918147 425.22149528056195,137.03225963577972 426.83439849396365,135.95699082684524 427.3720328984309,135.95699082684524 427.3720328984309,135.41935642237797 427.3720328984309,135.95699082684524 427.3720328984309,137.03225963577972 426.83439849396365,137.569894040247 425.75912968502917,140.25806606258323 424.1462264716274,141.87096927598492 423.6085920671602,143.48387248938667 423.07095766269293,144.55914129832115 423.07095766269293,145.09677570278842 422.5333232582257,145.09677570278842 422.5333232582257,144.55914129832115 423.07095766269293,144.55914129832115 424.1462264716274,142.94623808491946 426.29676408949643,141.3333348715177 427.9096673028982,140.25806606258323 428.98493611183267,139.1827972536487 429.5225705162999,138.64516284918147 429.5225705162999,138.1075284447142 429.5225705162999,138.64516284918147 429.5225705162999,139.1827972536487 427.3720328984309,141.87096927598492 425.75912968502917,144.55914129832115 424.6838608760947,146.1720445117229 424.1462264716274,147.24731332065738 423.6085920671602,147.24731332065738 424.1462264716274,147.24731332065738 424.6838608760947,146.70967891619017 424.6838608760947,146.1720445117229 426.83439849396365,143.48387248938667 428.4473017073654,141.87096927598492 429.5225705162999,140.25806606258323 430.06020492076715,138.64516284918147 430.5978393252344,138.1075284447142 430.5978393252344,138.64516284918147 430.5978393252344,139.72043165811596 430.06020492076715,140.79570046705044 427.9096673028982,144.02150689385394 426.83439849396365,145.6344101072557 426.29676408949643,146.70967891619017 426.29676408949643,147.24731332065738 426.83439849396365,146.1720445117229 427.9096673028982,144.55914129832115 430.5978393252344,141.3333348715177 433.28601134757065,138.1075284447142 434.8989145609724,135.41935642237797 435.9741833699068,133.80645320897622 437.04945217884136,132.73118440004174 437.04945217884136,133.268818804509 436.51181777437415,134.3440876134435 435.9741833699068,135.95699082684524 435.4365489654396,137.569894040247 434.8989145609724,139.1827972536487 434.3612801565051,140.79570046705044 434.3612801565051,141.3333348715177 434.8989145609724,140.25806606258323 435.9741833699068,139.72043165811596 437.5870865833086,137.03225963577972 438.6623553922431,135.41935642237797 439.1999897967103,134.88172201791076 439.1999897967103,135.41935642237797 438.6623553922431,136.49462523131245 437.04945217884136,139.1827972536487 434.8989145609724,141.87096927598492 433.82364575203786,144.55914129832115 432.7483769431034,145.6344101072557 432.7483769431034,146.70967891619017 432.7483769431034,146.1720445117229 433.28601134757065,146.1720445117229 433.82364575203786,145.09677570278842 436.51181777437415,142.4086036804522 438.1247209877758,140.79570046705044 439.1999897967103,139.72043165811596 440.27525860564486,138.64516284918147 440.8128930101121,138.1075284447142 441.3505274145793,138.1075284447142 441.3505274145793,138.64516284918147 441.3505274145793,139.1827972536487 440.27525860564486,141.3333348715177 439.1999897967103,142.94623808491946 438.1247209877758,145.6344101072557 438.1247209877758,146.1720445117229 438.1247209877758,146.70967891619017 438.1247209877758,146.1720445117229 438.1247209877758,144.55914129832115 439.1999897967103,142.4086036804522 440.27525860564486,140.79570046705044 441.3505274145793,138.64516284918147 442.4257962235138,137.569894040247 442.4257962235138,138.1075284447142 442.4257962235138,138.64516284918147 441.8881618190466,140.25806606258323 441.3505274145793,142.4086036804522 440.8128930101121,142.94623808491946 440.8128930101121,144.02150689385394 440.8128930101121,144.55914129832115 441.3505274145793,144.55914129832115 442.4257962235138,142.94623808491946 443.50106503244825,141.3333348715177 444.0386994369156,140.25806606258323 444.0386994369156,139.72043165811596 444.0386994369156,139.1827972536487 444.0386994369156,139.72043165811596 444.0386994369156,140.25806606258323 444.0386994369156,141.87096927598492 443.50106503244825,144.02150689385394 442.4257962235138,145.6344101072557 442.4257962235138,145.09677570278842 442.4257962235138,144.55914129832115 442.96343062798104,144.02150689385394 444.5763338413828,141.87096927598492 445.65160265031733,140.79570046705044 445.65160265031733,140.25806606258323 445.65160265031733,139.72043165811596 445.65160265031733,140.25806606258323 445.65160265031733,140.79570046705044 445.65160265031733,141.3333348715177 445.65160265031733,142.4086036804522 445.65160265031733,142.94623808491946 446.18923705478454,142.94623808491946 446.72687145925175,141.87096927598492 446.72687145925175,141.3333348715177 447.2645058637191,140.79570046705044 447.2645058637191,140.25806606258323 447.8021402681863,140.25806606258323 447.8021402681863,139.72043165811596 447.8021402681863,139.1827972536487 " style="color: rgb(0, 0, 0);"/><polyline fill="none" stroke="#10eded" stroke-width="2" stroke-linejoin="round" stroke-dashoffset="" fill-rule="nonzero" marker-start="" marker-mid="" marker-end="" id="svg_6" points="332.7483777121956,136.49462523131245 333.82364652113006,135.95699082684524 336.5118185434663,133.80645320897622 340.8128937792043,130.58064678217278 346.18923782387674,127.89247475983653 348.87740984621297,126.27957154643481 350.4903130596147,125.2043027375003 351.5655818685492,124.66666833303306 352.1032162730164,124.12903392856582 352.6408506774837,123.59139952409858 353.71611948641817,123.59139952409858 355.8666571042872,122.51613071516407 356.94192591322167,121.44086190622959 358.55482912662336,120.3655930972951 360.1677323400251,119.2903242883606 361.78063555342686,118.75268988389335 363.3935387668286,117.67742107495889 364.4688075757631,117.1397866704916 365.5440763846976,116.60215226602436 367.1569795980993,116.06451786155714 368.2322484070338,115.52688345708988 368.7698828115011,114.98924905262264 369.3075172159683,114.45161464815538 370.92042042937004,113.91398024368813 371.99568923830446,113.37634583922089 371.4580548338373,113.91398024368813 370.92042042937004,114.98924905262264 368.2322484070338,118.21505547942611 364.4688075757631,121.44086190622959 359.6300979355579,125.2043027375003 355.8666571042872,129.5053779732383 352.6408506774837,132.73118440004174 349.95267865514745,135.95699082684524 347.8021410372785,138.1075284447142 345.1139690149422,141.3333348715177 342.96343139707324,144.02150689385394 341.3505281836715,145.6344101072557 340.27525937473695,146.70967891619017 339.1999905658025,148.86021653405913 338.6623561613352,150.47311974746088 337.5870873524008,151.54838855639537 336.5118185434663,153.16129176979712 335.4365497345318,155.31182938766608 334.3612809255973,156.92473260106783 335.4365497345318,156.38709819660062 337.5870873524008,154.77419498319887 344.576334610475,148.86021653405913 353.17848508195095,142.4086036804522 363.3935387668286,134.88172201791076 370.92042042937004,130.0430123777055 376.8343988785097,125.74193714196757 381.67310851871497,121.97849631069683 384.3612805410512,119.2903242883606 388.6623557767892,115.52688345708988 391.3505277991254,113.91398024368813 392.4257966080599,112.83871143475365 392.96343101252717,112.83871143475365 393.5010654169944,112.30107703028641 392.96343101252717,113.37634583922089 391.8881622035927,113.91398024368813 388.1247213723219,118.21505547942611 383.2860117321167,123.59139952409858 377.372033282977,128.96774356877103 371.4580548338373,135.41935642237797 366.08171078916484,142.4086036804522 361.78063555342686,147.24731332065738 359.6300979355579,151.01075415192815 358.01719472215615,153.16129176979712 356.94192591322167,154.77419498319887 355.8666571042872,156.38709819660062 355.8666571042872,156.92473260106783 357.4795603176889,156.38709819660062 359.09246353109063,155.31182938766608 366.61934519363206,149.93548534299362 377.372033282977,142.94623808491946 388.6623557767892,134.3440876134435 397.26450624826515,126.81720595090205 403.7161191018721,120.90322750176234 408.01719433761,117.1397866704916 411.2430007644135,113.37634583922089 411.78063516888074,112.30107703028641 412.318269573348,112.30107703028641 412.318269573348,112.83871143475365 411.78063516888074,113.37634583922089 409.09246314654456,116.60215226602436 404.2537535063393,120.90322750176234 397.26450624826515,127.35484035536929 387.04945256338743,135.41935642237797 382.74837732764945,138.64516284918147 379.522570900846,141.87096927598492 376.8343988785097,144.55914129832115 374.68386126064075,147.24731332065738 373.07095804723906,148.86021653405913 371.99568923830446,149.93548534299362 372.5333236427718,149.93548534299362 374.14622685617354,148.86021653405913 384.89891494551847,141.3333348715177 396.1892374393306,133.80645320897622 405.32902231527373,126.27957154643481 412.318269573348,119.82795869282783 416.0817104046187,115.52688345708988 418.76988242695495,112.83871143475365 420.3827856403567,111.22580822135191 421.4580544492912,110.15053941241742 421.99568885375845,110.15053941241742 421.99568885375845,110.68817381688466 420.92042004482397,110.68817381688466 417.69461361802047,112.83871143475365 411.2430007644135,116.60215226602436 402.10321588847034,121.97849631069683 391.3505277991254,127.89247475983653 382.21074292318224,133.80645320897622 374.14622685617354,139.1827972536487 369.3075172159683,143.48387248938667 366.61934519363206,145.6344101072557 365.5440763846976,146.1720445117229 365.5440763846976,146.70967891619017 365.5440763846976,146.1720445117229 367.6946140025666,142.94623808491946 374.68386126064075,135.95699082684524 385.4365493499857,128.96774356877103 396.1892374393306,123.05376511963134 404.7913879108066,118.75268988389335 408.55482874207723,116.60215226602436 409.09246314654456,116.06451786155714 408.01719433761,116.06451786155714 403.1784846974048,118.21505547942611 395.6516030348634,121.97849631069683 385.4365493499857,127.35484035536929 376.2967644740425,133.268818804509 367.6946140025666,138.64516284918147 361.2430011489596,145.09677570278842 357.4795603176889,148.86021653405913 355.3290226998199,150.47311974746088 354.25375389088543,151.54838855639537 353.71611948641817,152.08602296086264 353.17848508195095,152.08602296086264 353.17848508195095,151.01075415192815 355.3290226998199,148.32258212959192 360.7053667444924,142.4086036804522 368.2322484070338,135.95699082684524 375.7591300695753,131.11828118664005 381.13547411424776,127.89247475983653 382.21074292318224,126.81720595090205 382.74837732764945,126.27957154643481 381.67310851871497,126.27957154643481 375.22149566510797,128.43010916430381 365.5440763846976,133.268818804509 354.79138829535265,139.1827972536487 346.18923782387674,145.09677570278842 341.8881625881387,149.93548534299362 339.7376249702698,152.08602296086264 339.1999905658025,153.6989261742644 338.6623561613352,154.2365605787316 338.6623561613352,153.16129176979712 340.8128937792043,148.32258212959192 344.576334610475,140.79570046705044 349.95267865514745,132.73118440004174 354.79138829535265,125.74193714196757 358.01719472215615,119.82795869282783 360.1677323400251,116.60215226602436 360.7053667444924,116.06451786155714 361.2430011489596,116.06451786155714 360.7053667444924,116.06451786155714 360.1677323400251,117.1397866704916 359.09246353109063,119.2903242883606 347.2645066328112,132.73118440004174 337.04945294793356,142.94623808491946 327.3720336675231,151.54838855639537 320.92042081391617,158.53763581446958 317.1569799826454,162.30107664574032 315.5440767692437,164.98924866807653 316.6193455781782,163.91397985914207 318.76988319604715,162.30107664574032 325.2214960496541,155.31182938766608 336.5118185434663,144.02150689385394 341.3505281836715,138.64516284918147 342.96343139707324,137.03225963577972 343.50106580154045,136.49462523131245 343.50106580154045,137.03225963577972 340.8128937792043,141.3333348715177 332.7483777121956,152.08602296086264 323.07095843178513,164.45161426360932 314.46880796030916,174.66666794848697 309.63009832010397,181.11828080209392 308.55482951116943,183.26881841996288 308.0171951067022,183.26881841996288 309.09246391563676,183.26881841996288 315.00644236477643,178.96774318422496 324.6838616451869,170.365592712749 336.5118185434663,161.2258078368058 347.2645066328112,152.08602296086264 354.25375389088543,146.1720445117229 358.01719472215615,142.4086036804522 359.09246353109063,141.3333348715177 359.09246353109063,140.79570046705044 359.09246353109063,141.3333348715177 358.01719472215615,143.48387248938667 351.02794746408193,151.54838855639537 339.7376249702698,162.83871105020756 329.5225712853921,172.516130330618 323.6085928362524,178.4301087797577 321.4580552183834,180.58064639762665 321.4580552183834,181.11828080209392 321.4580552183834,180.58064639762665 322.53332402731786,179.50537758869217 324.6838616451869,176.81720556635594 333.82364652113006,167.67742069041276 348.87740984621297,154.2365605787316 367.6946140025666,140.25806606258323 371.4580548338373,137.03225963577972 372.5333236427718,136.49462523131245 369.3075172159683,141.87096927598492 360.1677323400251,153.16129176979712 348.3397754417457,166.60215188147828 338.12472175686804,176.81720556635594 331.1354744987938,183.26881841996288 328.4473024764576,185.95699044229912 327.9096680719903,185.95699044229912 328.4473024764576,185.95699044229912 334.3612809255973,181.11828080209392 349.4150442506802,169.2903239038145 370.3827860249028,154.2365605787316 383.823646136584,143.48387248938667 390.27525899019093,138.64516284918147 391.8881622035927,137.569894040247 390.27525899019093,139.1827972536487 382.74837732764945,147.24731332065738 369.84515162043556,159.61290462340406 346.18923782387674,179.50537758869217 336.5118185434663,186.49462484676638 333.2860121166628,189.18279686910262 334.3612809255973,188.64516246463535 337.5870873524008,184.88172163336463 348.87740984621297,174.66666794848697 366.08171078916484,159.07527021893685 377.372033282977,148.86021653405913 384.89891494551847,141.87096927598492 385.4365493499857,141.87096927598492 385.4365493499857,141.3333348715177 385.4365493499857,141.87096927598492 383.823646136584,144.55914129832115 376.2967644740425,154.2365605787316 365.5440763846976,168.21505509488003 354.79138829535265,180.04301199315944 345.1139690149422,188.64516246463535 341.3505281836715,192.94623770037333 340.27525937473695,194.02150650930784 340.8128937792043,194.02150650930784 342.425796992606,192.94623770037333 349.95267865514745,185.95699044229912 364.4688075757631,172.516130330618 378.98493649637874,159.61290462340406 389.19999018125645,149.93548534299362 393.5010654169944,145.09677570278842 395.11396863039613,143.48387248938667 395.6516030348634,142.94623808491946 395.6516030348634,143.48387248938667 395.11396863039613,144.55914129832115 392.96343101252717,147.24731332065738 385.97418375445295,157.4623670055351 377.372033282977,168.21505509488003 369.84515162043556,177.3548399708232 361.2430011489596,187.56989365570087 359.09246353109063,190.79570008250437 358.55482912662336,190.79570008250437 359.6300979355579,190.2580656780371 361.78063555342686,188.10752806016814 365.5440763846976,184.88172163336463 376.2967644740425,174.66666794848697 389.73762458572367,162.83871105020756 398.87740946166684,153.6989261742644 403.7161191018721,148.86021653405913 405.32902231527373,146.1720445117229 404.7913879108066,148.86021653405913 400.4903126750686,155.31182938766608 393.5010654169944,164.45161426360932 385.97418375445295,174.1290335440197 378.44730209191147,182.73118401549567 371.4580548338373,190.79570008250437 368.7698828115011,195.09677531824235 368.2322484070338,196.17204412717683 373.6085924517062,191.33333448697158 382.74837732764945,182.73118401549567 392.4257966080599,173.5913991395525 397.80214065273236,167.13978628594558 399.4150438661341,164.45161426360932 399.9526782706014,163.91397985914207 398.33977505719963,166.064517477011 391.8881622035927,172.516130330618 380.5978397097805,184.34408722889742 361.78063555342686,202.0860225763165 353.17848508195095,209.612904238858 348.87740984621297,213.3763450701287 347.8021410372785,213.91397947459598 347.8021410372785,212.83871066566144 351.5655818685492,206.3870978120545 359.6300979355579,192.94623770037333 369.3075172159683,182.1935496110284 376.8343988785097,173.5913991395525 381.13547411424776,168.75268949934724 381.67310851871497,167.67742069041276 378.98493649637874,171.44086152168347 369.84515162043556,181.11828080209392 356.94192591322167,192.40860329590612 344.0387002060077,203.69892578971826 335.974184138999,210.68817304779247 333.2860121166628,212.83871066566144 332.7483777121956,213.3763450701287 332.7483777121956,212.30107626119423 335.974184138999,203.16129138525105 341.3505281836715,194.02150650930784 346.18923782387674,186.49462484676638 349.95267865514745,181.6559152065612 351.02794746408193,180.04301199315944 351.5655818685492,179.50537758869217 351.02794746408193,179.50537758869217 350.4903130596147,180.04301199315944 348.3397754417457,182.1935496110284 339.7376249702698,188.10752806016814 330.06020568985934,195.09677531824235 322.53332402731786,201.01075376738203 313.93117355584195,206.3870978120545 312.85590474690747,206.92473221652176 312.3182703424402,206.92473221652176 312.3182703424402,206.3870978120545 312.3182703424402,204.77419459865274 312.85590474690747,202.62365698078378 316.0817111737109,195.09677531824235 319.8451520049816,187.03225925123365 323.07095843178513,178.96774318422496 324.6838616451869,174.1290335440197 326.29676485858863,171.44086152168347 326.29676485858863,174.66666794848697 325.2214960496541,183.26881841996288 321.99568962285065,192.94623770037333 318.76988319604715,202.62365698078378 315.5440767692437,210.1505386433252 313.3935391513747,216.06451709246494 312.85590474690747,218.2150547103339 312.85590474690747,218.75268911480117 319.3075176005144,213.3763450701287 327.3720336675231,205.84946340758728 333.82364652113006,199.39785055398028 336.5118185434663,196.70967853164404 337.04945294793356,196.17204412717683 334.89891533006454,199.93548495844755 328.4473024764576,208.5376354299235 321.4580552183834,218.2150547103339 315.00644236477643,227.89247399074435 311.2430015335057,233.2688180354168 310.1677327245712,234.88172124881856 310.1677327245712,235.41935565328578 310.70536712903845,234.88172124881856 312.85590474690747,233.2688180354168 319.3075176005144,226.81720518180987 329.5225712853921,217.13978590139942 340.27525937473695,208.5376354299235 348.87740984621297,201.01075376738203 354.25375389088543,197.24731293611134 355.8666571042872,195.6344097227096 355.8666571042872,195.09677531824235 355.8666571042872,195.6344097227096 354.25375389088543,198.8602161495131 348.3397754417457,208.5376354299235 338.12472175686804,220.90322673267013 330.06020568985934,232.19354922648236 325.75913045412136,238.64516208008928 324.6838616451869,241.3333341024255 324.1462272407196,242.40860291136 325.2214960496541,241.3333341024255 328.98493688092486,236.49462446222032 337.5870873524008,226.2795707773426 349.4150442506802,211.76344185672696 353.17848508195095,205.31182900312 354.79138829535265,202.62365698078378 354.25375389088543,204.23656019418553 353.71611948641817,206.3870978120545 348.3397754417457,215.52688268799767 341.8881625881387,224.6666675639409 338.12472175686804,231.65591482201506 336.5118185434663,233.8064524398841 335.974184138999,234.3440868443513 336.5118185434663,234.3440868443513 337.04945294793356,233.8064524398841 341.3505281836715,228.43010839521162 349.95267865514745,217.6774203058667 359.09246353109063,205.84946340758728 366.61934519363206,196.70967853164404 370.92042042937004,191.87096889143885 371.99568923830446,190.2580656780371 371.4580548338373,194.02150650930784 366.61934519363206,204.23656019418553 355.8666571042872,221.4408611371374 350.4903130596147,230.5806460130806 346.72687222834395,236.49462446222032 345.65160341940947,238.64516208008928 344.576334610475,239.72043088902376 346.18923782387674,238.107527675622 353.17848508195095,230.5806460130806 362.85590436236134,219.82795792373565 372.5333236427718,208.5376354299235 379.522570900846,201.01075376738203 382.74837732764945,195.6344097227096 382.74837732764945,195.09677531824235 382.74837732764945,195.6344097227096 382.74837732764945,196.70967853164404 379.522570900846,202.62365698078378 370.92042042937004,216.06451709246494 358.55482912662336,231.11828041754785 350.4903130596147,242.40860291136 346.72687222834395,247.78494695603246 345.65160341940947,249.3978501694342 345.65160341940947,248.860215764967 347.8021410372785,245.6344093381635 354.25375389088543,235.41935565328578 363.9311731712958,220.90322673267013 375.7591300695753,204.77419459865274 382.74837732764945,194.02150650930784 387.04945256338743,187.56989365570087 388.6623557767892,184.88172163336463 389.19999018125645,184.88172163336463 387.5870869678547,189.18279686910262 382.21074292318224,201.01075376738203 371.4580548338373,221.4408611371374 367.6946140025666,230.0430116086133 366.08171078916484,233.2688180354168 366.08171078916484,234.3440868443513 367.1569795980993,232.73118363094954 371.4580548338373,224.12903315947364 377.90966768744426,212.83871066566144 384.89891494551847,201.01075376738203 390.81289339465815,190.2580656780371 393.5010654169944,183.80645282443015 394.03869982146165,182.73118401549567 394.03869982146165,182.1935496110284 394.03869982146165,182.73118401549567 394.03869982146165,183.80645282443015 394.03869982146165,187.56989365570087 390.27525899019093,197.78494734057858 384.89891494551847,210.1505386433252 380.5978397097805,219.29032351926844 377.90966768744426,224.12903315947364 377.372033282977,225.7419363728754 378.44730209191147,223.59139875500637 383.2860117321167,215.52688268799767 389.19999018125645,202.62365698078378 396.1892374393306,190.79570008250437 401.02794707953586,182.1935496110284 403.1784846974048,177.89247437529048 404.2537535063393,176.81720556635594 404.2537535063393,177.89247437529048 401.02794707953586,190.2580656780371 396.1892374393306,202.62365698078378 390.81289339465815,213.91397947459598 386.5118181589202,223.59139875500637 384.89891494551847,230.0430116086133 384.3612805410512,231.65591482201506 383.823646136584,232.19354922648236 385.4365493499857,228.96774279967886 389.19999018125645,220.90322673267013 394.03869982146165,211.22580745225974 396.7268718437979,204.77419459865274 396.7268718437979,204.23656019418553 396.1892374393306,205.84946340758728 391.3505277991254,213.91397947459598 382.74837732764945,225.7419363728754 373.07095804723906,238.64516208008928 366.08171078916484,246.70967814709797 362.85590436236134,250.4731189783687 362.31826995789413,252.08602219177044 361.78063555342686,252.08602219177044 361.78063555342686,251.54838778730323 362.31826995789413,250.4731189783687 366.08171078916484,244.559140529229 370.92042042937004,235.95699005775305 375.7591300695753,229.5053772041461 377.90966768744426,225.7419363728754 378.98493649637874,224.12903315947364 378.98493649637874,223.59139875500637 377.372033282977,224.6666675639409 371.4580548338373,230.0430116086133 359.6300979355579,240.7956996979583 353.71611948641817,246.70967814709797 350.4903130596147,250.4731189783687 348.87740984621297,252.6236565962377 348.3397754417457,253.16129100070492 348.3397754417457,252.08602219177044 349.95267865514745,250.4731189783687 355.8666571042872,243.48387172029453 365.00644198023036,237.03225886668753 375.7591300695753,230.5806460130806 377.372033282977,228.96774279967886 377.90966768744426,228.96774279967886 377.90966768744426,230.0430116086133 377.90966768744426,231.11828041754785 375.7591300695753,233.8064524398841 370.92042042937004,241.87096850689278 365.5440763846976,250.4731189783687 361.78063555342686,257.4623662364429 359.6300979355579,261.2258070677136 359.09246353109063,262.30107587664816 358.55482912662336,262.30107587664816 359.09246353109063,262.30107587664816 360.1677323400251,261.2258070677136 366.08171078916484,256.9247318319757 374.68386126064075,250.4731189783687 382.21074292318224,244.559140529229 385.97418375445295,239.72043088902376 388.1247213723219,238.107527675622 388.6623557767892,237.03225886668753 388.6623557767892,237.5698932711548 386.5118181589202,242.94623731582726 381.67310851871497,249.93548457390148 375.22149566510797,260.15053825877914 373.6085924517062,262.30107587664816 372.5333236427718,264.4516134945171 371.99568923830446,264.4516134945171 374.14622685617354,261.7634414721809 380.0602053053132,254.23655980963946 389.19999018125645,245.6344093381635 395.6516030348634,239.18279648455655 400.4903126750686,235.41935565328578 401.02794707953586,235.41935565328578 400.4903126750686,235.95699005775305 398.87740946166684,240.25806529349103 395.6516030348634,246.70967814709797 391.8881622035927,252.08602219177044 388.6623557767892,257.4623662364429 386.5118181589202,261.2258070677136 385.97418375445295,262.30107587664816 386.5118181589202,262.30107587664816 389.73762458572367,257.4623662364429 395.6516030348634,251.54838778730323 399.9526782706014,247.24731255156524 401.5655814840031,245.09677493369622 402.10321588847034,245.09677493369622 401.5655814840031,247.24731255156524 397.80214065273236,255.31182861857394 392.96343101252717,263.37634468558264 389.19999018125645,269.2903231347223 387.5870869678547,272.5161295615258 387.5870869678547,273.0537639659931 388.6623557767892,272.5161295615258 390.81289339465815,270.36559194365685 396.7268718437979,264.4516134945171 402.6408502929376,256.9247318319757 407.4795599331428,252.08602219177044 411.2430007644135,248.32258136049973 412.318269573348,247.24731255156524 412.8559039778153,247.24731255156524 411.78063516888074,251.01075338283596 406.4042911242083,260.6881726632464 402.6408502929376,266.6021511123861 401.5655814840031,269.8279575391896 401.02794707953586,270.90322634812406 401.02794707953586,271.44086075259133 401.02794707953586,270.90322634812406 401.5655814840031,270.36559194365685 404.2537535063393,267.13978551685335 408.55482874207723,261.7634414721809 410.70536635994625,259.07526944984465 411.78063516888074,256.9247318319757 413.93117278674976,255.31182861857394 413.93117278674976,256.3870974275084 412.318269573348,259.6129038543119 410.167731955479,265.5268823034516 407.4795599331428,270.90322634812406 405.32902231527373,274.6666671793948 404.7913879108066,276.27957039279653 404.2537535063393,276.27957039279653 405.32902231527373,276.27957039279653 406.4042911242083,275.20430158386205 413.93117278674976,267.6774199213206 420.3827856403567,261.7634414721809 423.6085920671602,258.0000006409102 425.22149528056195,255.31182861857394 425.75912968502917,254.77419421410667 425.75912968502917,256.3870974275084 425.22149528056195,261.2258070677136 421.4580544492912,268.7526887302551 419.3075168314222,273.5913983704603 417.69461361802047,276.27957039279653 417.15697921355326,277.354839201731 417.69461361802047,277.354839201731 418.76988242695495,276.27957039279653 422.5333232582257,271.44086075259133 428.98493611183267,264.4516134945171 434.8989145609724,257.4623662364429 439.73762420117754,253.16129100070492 441.8881618190466,251.01075338283596 442.96343062798104,250.4731189783687 443.50106503244825,250.4731189783687 443.50106503244825,251.54838778730323 443.50106503244825,254.23655980963946 440.27525860564486,263.37634468558264 437.5870865833086,269.2903231347223 436.51181777437415,271.97849515705855 435.9741833699068,273.0537639659931 435.9741833699068,273.5913983704603 436.51181777437415,273.0537639659931 437.5870865833086,271.44086075259133 439.73762420117754,269.2903231347223 445.65160265031733,260.6881726632464 451.0279466949898,252.6236565962377 455.86665633519493,246.70967814709797 458.017193953064,244.02150612476174 458.5548283575312,244.02150612476174 458.5548283575312,245.09677493369622 455.86665633519493,250.4731189783687 451.0279466949898,259.07526944984465 446.18923705478454,268.21505432578783 443.50106503244825,274.12903277492757 442.4257962235138,275.7419359883293 442.4257962235138,276.27957039279653 443.50106503244825,275.7419359883293 444.5763338413828,274.6666671793948 449.95267788605526,268.7526887302551 461.2430003798674,255.31182861857394 466.61934442453986,246.17204374263076 471.99568846921227,238.107527675622 474.6838604915486,235.41935565328578 475.75912930048304,234.88172124881856 475.75912930048304,235.41935565328578 475.75912930048304,235.95699005775305 474.1462260870813,241.3333341024255 470.3827852558105,248.860215764967 466.61934442453986,255.84946302304115 463.3935379977365,260.6881726632464 461.7806347843347,263.37634468558264 461.7806347843347,264.4516134945171 462.31826918880193,263.91397909004985 466.08171002007265,259.6129038543119 474.6838604915486,252.08602219177044 484.361279771959,244.559140529229 491.88816143450043,240.25806529349103 495.11396786130393,238.64516208008928 495.65160226577115,238.64516208008928 495.65160226577115,239.72043088902376 494.5763334568367,241.3333341024255 492.42579583896776,244.559140529229 480.060204536221,260.15053825877914 471.99568846921227,270.90322634812406 465.0064412111381,277.8924736061983 462.85590359326915,281.655914437469 462.31826918880193,282.7311832464035 463.3935379977365,282.19354884193626 465.0064412111381,280.5806456285345 469.30751644687615,277.8924736061983 481.6731077496228,268.7526887302551 494.5763334568367,259.6129038543119 501.56558071491094,254.23655980963946 504.79138714171444,251.01075338283596 505.32902154618165,251.01075338283596 504.79138714171444,251.01075338283596 504.2537527372471,251.54838778730323 503.1784839283127,252.6236565962377 497.2645054791729,258.0000006409102 489.19998941216426,263.91397909004985 480.060204536221,268.21505432578783 474.1462260870813,271.44086075259133 472.53332287367965,271.97849515705855 471.99568846921227,271.97849515705855 471.99568846921227,270.90322634812406 473.608591682614,269.2903231347223 479.52257013175375,263.91397909004985 485.97418298536076,258.5376350453774 489.73762381663147,256.3870974275084 490.2752582210987,255.84946302304115 490.812892625566,255.84946302304115 489.73762381663147,255.84946302304115 482.74837655855725,258.5376350453774 470.3827852558105,263.37634468558264 453.71611871732597,269.2903231347223 435.9741833699068,274.6666671793948 419.3075168314222,277.8924736061983 416.619344809086,278.43010801066555 416.619344809086,277.8924736061983 417.15697921355326,276.27957039279653 421.4580544492912,270.90322634812406 429.5225705162999,265.5268823034516 438.1247209877758,261.2258070677136 442.4257962235138,259.07526944984465 443.50106503244825,258.5376350453774 442.96343062798104,258.5376350453774 441.8881618190466,259.07526944984465 436.51181777437415,261.7634414721809 422.5333232582257,268.7526887302551 414.468807191217,271.97849515705855 407.4795599331428,273.5913983704603 404.2537535063393,274.12903277492757 403.7161191018721,274.12903277492757 403.1784846974048,274.12903277492757 403.7161191018721,273.5913983704603 404.7913879108066,272.5161295615258 412.318269573348,268.7526887302551 422.5333232582257,264.4516134945171 432.2107425386361,261.2258070677136 435.9741833699068,259.6129038543119 437.04945217884136,259.07526944984465 435.9741833699068,259.07526944984465 432.2107425386361,259.07526944984465 425.22149528056195,260.15053825877914 415.00644159568424,262.30107587664816 405.86665671974106,263.91397909004985 400.4903126750686,264.4516134945171 398.33977505719963,264.4516134945171 397.80214065273236,264.4516134945171 397.80214065273236,263.91397909004985 397.80214065273236,262.30107587664816 400.4903126750686,258.0000006409102 408.01719433761,251.01075338283596 410.70536635994625,249.3978501694342 411.2430007644135,249.3978501694342 410.167731955479,249.3978501694342 408.01719433761,249.3978501694342 403.7161191018721,249.93548457390148 394.03869982146165,252.6236565962377 387.04945256338743,254.23655980963946 384.3612805410512,254.23655980963946 383.823646136584,254.77419421410667 389.19999018125645,255.31182861857394 412.8559039778153,255.84946302304115 428.98493611183267,255.84946302304115 440.27525860564486,255.84946302304115 446.18923705478454,255.84946302304115 448.3397746726535,255.84946302304115 449.41504348158804,255.84946302304115 449.95267788605526,256.3870974275084 449.95267788605526,257.4623662364429 449.95267788605526,258.5376350453774 448.8774090771207,260.6881726632464 447.8021402681863,262.30107587664816 446.72687145925175,262.83871028111537 447.2645058637191,262.83871028111537 447.8021402681863,262.30107587664816 452.1032155039242,258.5376350453774 459.63009716646565,252.08602219177044 469.30751644687615,244.02150612476174 477.9096669183521,237.5698932711548 482.21074215409004,234.88172124881856 483.8236453674918,233.8064524398841 483.8236453674918,234.3440868443513 483.8236453674918,235.41935565328578 481.6731077496228,240.7956996979583 471.99568846921227,253.6989254051722 467.1569788290072,260.15053825877914 465.54407561560544,262.30107587664816 465.0064412111381,262.30107587664816 465.54407561560544,262.30107587664816 470.9204196602779,259.07526944984465 480.060204536221,251.54838778730323 490.812892625566,242.40860291136 500.4903119059764,235.41935565328578 506.9419247595834,231.11828041754785 509.6300967819196,229.5053772041461 510.7053655908541,229.5053772041461 510.7053655908541,230.0430116086133 510.1677311863869,233.8064524398841 506.4042903551161,240.25806529349103 500.4903119059764,248.32258136049973 495.65160226577115,253.6989254051722 493.5010646479022,256.9247318319757 492.96343024343497,257.4623662364429 493.5010646479022,257.4623662364429 494.0386990523695,257.4623662364429 497.2645054791729,254.77419421410667 503.1784839283127,248.860215764967 509.09246237745236,242.94623731582726 515.5440752310594,237.5698932711548 517.156978444461,236.49462446222032 517.6946128489283,236.49462446222032 517.6946128489283,237.03225886668753 517.156978444461,238.64516208008928 512.855903208723,245.09677493369622 506.9419247595834,252.6236565962377 503.7161183327799,257.4623662364429 502.10321511937815,259.6129038543119 501.0279463104436,260.15053825877914 501.0279463104436,260.6881726632464 501.56558071491094,260.15053825877914 504.2537527372471,257.4623662364429 509.6300967819196,252.08602219177044 516.0817096355265,246.70967814709797 521.4580536801991,242.40860291136 525.2214945114697,239.72043088902376 526.2967633204041,239.18279648455655 526.8343977248715,239.18279648455655 526.2967633204041,239.72043088902376 525.759128915937,240.7956996979583 522.5333224891335,245.09677493369622 519.30751606233,250.4731189783687 516.0817096355265,254.77419421410667 513.9311720176577,258.5376350453774 513.3935376131903,259.07526944984465 513.3935376131903,258.5376350453774 515.0064408265921,256.9247318319757 518.7698816578627,252.08602219177044 524.6838601070026,245.6344093381635 531.6731073650767,239.18279648455655 535.9741826008146,233.8064524398841 538.6623546231508,230.0430116086133 539.7376234320855,228.43010839521162 536.511817005282,230.0430116086133 528.9849353427405,234.88172124881856 519.8451504667973,240.25806529349103 512.855903208723,244.559140529229 510.1677311863869,246.17204374263076 509.6300967819196,246.17204374263076 510.1677311863869,244.02150612476174 512.3182688042559,241.87096850689278 518.7698816578627,233.2688180354168 525.759128915937,223.05376435053915 532.210741769544,213.91397947459598 537.5870858142164,204.23656019418553 538.1247202186837,202.0860225763165 537.5870858142164,203.69892578971826 531.6731073650767,212.30107626119423 519.8451504667973,225.20430196840812 505.32902154618165,238.64516208008928 494.0386990523695,246.70967814709797 489.73762381663147,249.3978501694342 489.19998941216426,249.93548457390148 489.19998941216426,249.3978501694342 495.65160226577115,238.64516208008928 505.32902154618165,225.7419363728754 515.0064408265921,212.30107626119423 523.0709568936009,201.5483881718493 528.4473009382732,195.09677531824235 529.5225697472076,192.40860329590612 528.4473009382732,193.4838721048406 522.5333224891335,199.93548495844755 509.6300967819196,210.68817304779247 490.812892625566,226.2795707773426 473.07095727814686,238.107527675622 470.9204196602779,239.18279648455655 470.3827852558105,239.72043088902376 470.9204196602779,238.107527675622 474.1462260870813,233.2688180354168 478.98493572728654,224.6666675639409 484.8989141764262,214.4516138790632 491.3505270300332,206.92473221652176 496.1892366702385,201.01075376738203 497.8021398836402,198.3225817450458 497.8021398836402,197.78494734057858 497.2645054791729,198.8602161495131 495.65160226577115,201.5483881718493 488.66235500769704,210.68817304779247 478.44730132281927,223.05376435053915 470.9204196602779,233.2688180354168 467.1569788290072,238.64516208008928 466.61934442453986,239.72043088902376 466.08171002007265,239.72043088902376 466.08171002007265,239.18279648455655 468.76988204240894,235.41935565328578 475.75912930048304,225.20430196840812 485.97418298536076,212.83871066566144 495.11396786130393,201.01075376738203 503.1784839283127,191.33333448697158 504.2537527372471,188.64516246463535 504.79138714171444,188.64516246463535 504.79138714171444,190.2580656780371 501.0279463104436,196.70967853164404 494.5763334568367,208.00000102545624 488.1247206032297,217.6774203058667 484.8989141764262,221.4408611371374 483.8236453674918,221.97849554160467 483.8236453674918,222.51612994607189 489.73762381663147,214.98924828353046 499.415043097042,203.69892578971826 508.55482797298515,192.40860329590612 517.156978444461,182.1935496110284 521.9956880846662,175.74193675742146 523.608591298068,173.05376473508522 524.1462257025353,172.516130330618 524.1462257025353,173.5913991395525 523.608591298068,176.27957116188873 518.2322472533956,187.03225925123365 509.6300967819196,203.69892578971826 502.64084952384536,214.98924828353046 499.9526775015092,220.36559232820292 498.87740869257465,221.97849554160467 499.415043097042,221.97849554160467 504.2537527372471,217.13978590139942 513.9311720176577,206.3870978120545 525.759128915937,191.87096889143885 533.2860105784785,180.04301199315944 538.1247202186837,171.97849592615074 540.8128922410199,167.13978628594558 541.3505266454872,166.064517477011 541.8881610499543,166.064517477011 541.8881610499543,168.21505509488003 539.7376234320855,176.27957116188873 535.4365481963475,188.64516246463535 530.060204151675,201.5483881718493 525.2214945114697,210.1505386433252 523.608591298068,212.30107626119423 523.0709568936009,212.83871066566144 523.608591298068,211.76344185672696 524.1462257025353,210.1505386433252 526.8343977248715,201.5483881718493 531.1354729606094,191.33333448697158 533.8236449829458,180.04301199315944 535.4365481963475,171.44086152168347 536.511817005282,167.67742069041276 534.3612793874129,169.82795830828178 527.3720321293388,178.96774318422496 516.6193440399938,191.87096889143885 506.4042903551161,203.69892578971826 498.33977428810744,211.22580745225974 494.5763334568367,215.52688268799767 493.5010646479022,216.06451709246494 493.5010646479022,214.4516138790632 494.5763334568367,211.22580745225974 498.33977428810744,201.01075376738203 503.7161183327799,187.56989365570087 508.0171935685178,175.74193675742146 509.6300967819196,170.365592712749 510.1677311863869,169.2903239038145 506.9419247595834,174.66666794848697 498.87740869257465,186.49462484676638 490.2752582210987,199.39785055398028 481.6731077496228,210.1505386433252 477.3720325138848,216.6021514969322 475.75912930048304,218.2150547103339 475.75912930048304,217.6774203058667 477.3720325138848,212.30107626119423 481.6731077496228,201.01075376738203 486.51181738982797,188.64516246463535 489.73762381663147,179.50537758869217 491.3505270300332,175.74193675742146 491.88816143450043,175.20430235295424 491.88816143450043,175.74193675742146 491.88816143450043,176.81720556635594 490.2752582210987,178.96774318422496 484.8989141764262,189.7204312735699 481.1354733451555,197.24731293611134 478.98493572728654,199.93548495844755 478.44730132281927,201.01075376738203 477.9096669183521,201.01075376738203 477.9096669183521,200.47311936291484 477.9096669183521,198.3225817450458 478.44730132281927,195.09677531824235 481.6731077496228,184.88172163336463 485.97418298536076,174.1290335440197 489.19998941216426,165.52688307254382 491.3505270300332,160.68817343233857 491.88816143450043,159.07527021893685 491.88816143450043,159.61290462340406 488.66235500769704,164.98924866807653 483.2860109630245,174.1290335440197 476.29676370495037,183.26881841996288 471.4580540647451,189.7204312735699 469.30751644687615,191.87096889143885 468.76988204240894,192.40860329590612 468.76988204240894,191.87096889143885 468.76988204240894,190.79570008250437 469.30751644687615,188.10752806016814 474.6838604915486,174.1290335440197 478.98493572728654,163.37634545467478 481.6731077496228,157.4623670055351 481.6731077496228,155.84946379213335 482.21074215409004,155.84946379213335 481.6731077496228,157.4623670055351 480.060204536221,160.15053902787133 477.9096669183521,163.91397985914207 471.99568846921227,173.5913991395525 467.1569788290072,181.11828080209392 465.54407561560544,184.34408722889742 465.0064412111381,184.88172163336463 465.0064412111381,183.80645282443015 466.08171002007265,180.58064639762665 468.2322476379416,172.516130330618 470.9204196602779,161.2258078368058 473.608591682614,148.86021653405913 475.22149489601577,140.79570046705044 475.22149489601577,137.569894040247 475.75912930048304,136.49462523131245 475.75912930048304,137.03225963577972 475.22149489601577,138.64516284918147 470.9204196602779,146.1720445117229 465.0064412111381,157.4623670055351 458.017193953064,171.44086152168347 455.86665633519493,175.74193675742146 454.7913875262605,176.81720556635594 454.7913875262605,177.89247437529048 454.7913875262605,177.3548399708232 454.7913875262605,176.81720556635594 454.7913875262605,175.20430235295424 457.4795595485967,167.67742069041276 462.31826918880193,158.0000014100023 467.1569788290072,148.86021653405913 470.3827852558105,142.94623808491946 470.9204196602779,141.3333348715177 471.4580540647451,141.3333348715177 471.4580540647451,144.02150689385394 470.9204196602779,152.62365736532985 468.76988204240894,166.064517477011 466.61934442453986,177.89247437529048 465.54407561560544,188.10752806016814 465.0064412111381,194.02150650930784 464.4688068066709,196.17204412717683 464.4688068066709,195.09677531824235 465.0064412111381,194.02150650930784 468.76988204240894,185.4193560378319 470.3827852558105,182.1935496110284 470.3827852558105,181.11828080209392 470.3827852558105,181.6559152065612 470.3827852558105,182.73118401549567 469.84515085134336,185.4193560378319 466.61934442453986,194.55914091377508 461.7806347843347,204.77419459865274 456.94192514412947,214.98924828353046 453.17848431285876,221.4408611371374 452.64084990839154,222.51612994607189 452.64084990839154,223.05376435053915 452.64084990839154,222.51612994607189 453.71611871732597,219.29032351926844 456.94192514412947,211.22580745225974 460.7053659754002,203.16129138525105 463.9311724022037,197.24731293611134 465.54407561560544,194.02150650930784 466.08171002007265,193.4838721048406 466.08171002007265,194.55914091377508 466.08171002007265,196.17204412717683 466.08171002007265,207.46236662098897 466.08171002007265,213.3763450701287 466.08171002007265,216.06451709246494 466.08171002007265,217.13978590139942 466.08171002007265,217.6774203058667 466.61934442453986,217.6774203058667 467.1569788290072,217.6774203058667 467.6946132334744,216.6021514969322 469.84515085134336,209.612904238858 473.608591682614,199.93548495844755 476.29676370495037,189.7204312735699 477.9096669183521,182.73118401549567 478.44730132281927,182.1935496110284 478.44730132281927,183.80645282443015 477.3720325138848,187.03225925123365 474.1462260870813,197.78494734057858 469.30751644687615,210.68817304779247 465.0064412111381,220.90322673267013 463.3935379977365,225.20430196840812 463.3935379977365,226.2795707773426 463.3935379977365,225.7419363728754 463.9311724022037,224.12903315947364 465.54407561560544,221.4408611371374 474.6838604915486,204.23656019418553 483.2860109630245,186.49462484676638 491.3505270300332,169.82795830828178 496.1892366702385,158.0000014100023 498.33977428810744,151.01075415192815 498.87740869257465,148.86021653405913 498.87740869257465,148.32258212959192 497.8021398836402,153.6989261742644 493.5010646479022,165.52688307254382 489.19998941216426,175.74193675742146 488.1247206032297,180.58064639762665 491.3505270300332,176.27957116188873 497.8021398836402,166.60215188147828 505.32902154618165,154.2365605787316 511.2429999953213,141.87096927598492 515.0064408265921,134.88172201791076 516.0817096355265,133.268818804509 516.6193440399938,133.268818804509 516.6193440399938,137.03225963577972 516.0817096355265,148.32258212959192 513.3935376131903,160.68817343233857 512.3182688042559,166.60215188147828 511.78063439978854,168.21505509488003 513.3935376131903,164.98924866807653 517.156978444461,158.0000014100023 521.9956880846662,147.78494772512465 525.2214945114697,137.03225963577972 528.4473009382732,128.96774356877103 530.5978385561423,123.59139952409858 530.5978385561423,123.05376511963134 530.5978385561423,124.12903392856582 530.5978385561423,126.81720595090205 530.5978385561423,130.58064678217278 530.5978385561423,140.79570046705044 528.9849353427405,153.16129176979712 527.3720321293388,162.30107664574032 526.2967633204041,167.13978628594558 526.2967633204041,168.75268949934724 529.5225697472076,161.2258078368058 533.2860105784785,151.54838855639537 535.9741826008146,141.3333348715177 538.1247202186837,133.80645320897622 539.1999890276181,131.11828118664005 539.7376234320855,130.58064678217278 539.7376234320855,131.11828118664005 539.7376234320855,132.19354999557453 539.7376234320855,134.3440876134435 539.7376234320855,143.48387248938667 536.511817005282,155.31182938766608 533.8236449829458,164.98924866807653 531.6731073650767,169.2903239038145 531.1354729606094,169.82795830828178 531.1354729606094,169.2903239038145 531.1354729606094,168.21505509488003 531.1354729606094,166.60215188147828 531.1354729606094,158.53763581446958 531.1354729606094,146.1720445117229 530.5978385561423,135.95699082684524 530.060204151675,130.58064678217278 530.060204151675,129.5053779732383 529.5225697472076,129.5053779732383 527.9096665338059,131.11828118664005 517.156978444461,144.02150689385394 508.55482797298515,155.31182938766608 501.0279463104436,164.45161426360932 496.7268710747057,169.2903239038145 496.1892366702385,170.365592712749 496.1892366702385,169.2903239038145 496.1892366702385,163.37634545467478 496.7268710747057,154.77419498319887 496.7268710747057,145.09677570278842 497.2645054791729,135.41935642237797 497.2645054791729,133.268818804509 497.2645054791729,134.3440876134435 496.7268710747057,136.49462523131245 492.96343024343497,144.55914129832115 488.1247206032297,152.08602296086264 484.8989141764262,157.4623670055351 484.361279771959,158.53763581446958 484.8989141764262,153.16129176979712 486.51181738982797,144.55914129832115 488.1247206032297,135.41935642237797 489.19998941216426,128.96774356877103 489.19998941216426,125.2043027375003 489.73762381663147,124.12903392856582 489.73762381663147,125.2043027375003 487.5870861987625,131.11828118664005 483.8236453674918,140.25806606258323 481.6731077496228,146.1720445117229 480.5978389406883,148.32258212959192 480.5978389406883,148.86021653405913 480.5978389406883,148.32258212959192 480.5978389406883,147.24731332065738 480.5978389406883,144.55914129832115 481.1354733451555,138.1075284447142 482.21074215409004,131.11828118664005 482.74837655855725,125.2043027375003 482.74837655855725,122.51613071516407 482.74837655855725,121.44086190622959 482.74837655855725,124.66666833303306 480.060204536221,130.58064678217278 477.9096669183521,135.95699082684524 476.8343981094175,139.1827972536487 476.29676370495037,139.72043165811596 476.29676370495037,139.1827972536487 476.29676370495037,135.41935642237797 477.3720325138848,127.89247475983653 478.98493572728654,121.44086190622959 480.060204536221,115.52688345708988 480.060204536221,114.98924905262264 478.98493572728654,116.60215226602436 477.9096669183521,118.75268988389335 471.4580540647451,127.35484035536929 470.9204196602779,128.43010916430381 470.3827852558105,128.96774356877103 470.3827852558105,126.81720595090205 470.3827852558105,123.05376511963134 470.3827852558105,117.1397866704916 470.3827852558105,113.91398024368813 470.3827852558105,112.30107703028641 470.3827852558105,111.76344262581915 469.84515085134336,111.76344262581915 469.30751644687615,111.76344262581915 468.76988204240894,112.83871143475365 465.54407561560544,116.06451786155714 460.7053659754002,121.44086190622959 456.94192514412947,124.66666833303306 456.94192514412947,125.2043027375003 456.94192514412947,124.66666833303306 456.94192514412947,123.59139952409858 456.94192514412947,120.3655930972951 458.017193953064,113.91398024368813 458.017193953064,110.68817381688466 458.5548283575312,110.15053941241742 458.017193953064,111.22580822135191 454.7913875262605,114.45161464815538 444.0386994369156,122.51613071516407 441.3505274145793,123.59139952409858 440.8128930101121,123.59139952409858 440.8128930101121,121.44086190622959 441.8881618190466,118.75268988389335 442.96343062798104,116.06451786155714 443.50106503244825,114.98924905262264 444.0386994369156,114.98924905262264 442.96343062798104,114.98924905262264 438.6623553922431,118.21505547942611 432.2107425386361,120.90322750176234 427.3720328984309,122.51613071516407 425.22149528056195,123.59139952409858 424.1462264716274,124.12903392856582 423.6085920671602,124.66666833303306 423.6085920671602,124.12903392856582 423.6085920671602,123.59139952409858 423.6085920671602,123.05376511963134 424.6838608760947,120.3655930972951 427.3720328984309,116.06451786155714 427.9096673028982,114.45161464815538 428.4473017073654,113.91398024368813 427.9096673028982,114.45161464815538 424.6838608760947,118.21505547942611 416.0817104046187,125.74193714196757 407.4795599331428,132.19354999557453 403.1784846974048,134.3440876134435 402.10321588847034,134.88172201791076 402.10321588847034,133.80645320897622 405.32902231527373,129.5053779732383 410.167731955479,123.59139952409858 416.0817104046187,118.75268988389335 422.5333232582257,114.98924905262264 426.83439849396365,112.83871143475365 427.9096673028982,111.76344262581915 427.9096673028982,112.30107703028641 427.9096673028982,113.37634583922089 425.75912968502917,117.67742107495889 421.4580544492912,123.59139952409858 420.92042004482397,124.66666833303306 423.07095766269293,121.97849631069683 428.98493611183267,116.06451786155714 434.8989145609724,109.07527060348292 439.73762420117754,104.77419536774495 440.8128930101121,103.16129215434322 441.3505274145793,103.16129215434322 441.3505274145793,104.23656096327771 440.27525860564486,109.07527060348292 438.1247209877758,115.52688345708988 437.04945217884136,118.21505547942611 436.51181777437415,118.75268988389335 437.04945217884136,118.21505547942611 438.1247209877758,116.60215226602436 445.11396824585,109.61290500795016 446.18923705478454,108.5376361990157 447.2645058637191,107.46236739008118 447.8021402681863,107.46236739008118 448.8774090771207,107.46236739008118 448.8774090771207,110.15053941241742 447.2645058637191,114.98924905262264 446.18923705478454,118.75268988389335 446.18923705478454,120.3655930972951 445.65160265031733,120.3655930972951 447.8021402681863,119.82795869282783 452.64084990839154,117.67742107495889 457.4795595485967,115.52688345708988 460.167731570933,114.98924905262264 460.7053659754002,114.98924905262264 461.2430003798674,114.98924905262264 461.7806347843347,117.67742107495889 462.31826918880193,123.05376511963134 462.85590359326915,126.81720595090205 462.85590359326915,128.43010916430381 462.85590359326915,129.5053779732383 463.3935379977365,129.5053779732383 464.4688068066709,129.5053779732383 467.6946132334744,127.35484035536929 474.6838604915486,121.97849631069683 477.9096669183521,119.82795869282783 478.44730132281927,118.75268988389335 478.44730132281927,119.2903242883606 478.44730132281927,120.3655930972951 478.44730132281927,121.44086190622959 474.6838604915486,127.35484035536929 468.2322476379416,137.03225963577972 462.85590359326915,145.09677570278842 459.09246276199843,149.93548534299362 458.5548283575312,150.47311974746088 459.09246276199843,148.86021653405913 462.31826918880193,143.48387248938667 466.08171002007265,137.03225963577972 468.76988204240894,133.268818804509 468.76988204240894,132.73118440004174 469.30751644687615,132.73118440004174 469.30751644687615,133.268818804509 468.76988204240894,134.88172201791076 465.0064412111381,141.3333348715177 456.40429073966226,154.77419498319887 453.71611871732597,158.53763581446958 448.8774090771207,164.45161426360932 448.3397746726535,164.98924866807653 448.3397746726535,164.45161426360932 448.3397746726535,162.30107664574032 449.41504348158804,159.61290462340406 449.95267788605526,158.0000014100023 449.95267788605526,157.4623670055351 449.95267788605526,158.0000014100023 449.95267788605526,160.15053902787133 448.3397746726535,162.30107664574032 447.2645058637191,163.37634545467478 446.72687145925175,163.91397985914207 446.72687145925175,162.30107664574032 447.2645058637191,160.15053902787133 447.2645058637191,157.4623670055351 447.2645058637191,156.92473260106783 446.18923705478454,157.4623670055351 445.11396824585,158.0000014100023 440.8128930101121,160.15053902787133 439.73762420117754,160.15053902787133 439.73762420117754,159.61290462340406 439.73762420117754,158.0000014100023 439.73762420117754,157.4623670055351 439.1999897967103,157.4623670055351 438.6623553922431,158.0000014100023 437.5870865833086,158.53763581446958 435.9741833699068,159.07527021893685 435.9741833699068,158.53763581446958 435.9741833699068,157.4623670055351 435.4365489654396,157.4623670055351 434.8989145609724,157.4623670055351 434.3612801565051,157.4623670055351 432.7483769431034,158.0000014100023 431.6731081341689,158.0000014100023 431.13547372970163,158.53763581446958 430.5978393252344,158.53763581446958 430.06020492076715,159.07527021893685 428.98493611183267,159.61290462340406 427.9096673028982,160.15053902787133 427.9096673028982,159.61290462340406 427.3720328984309,159.61290462340406 426.83439849396365,159.61290462340406 426.29676408949643,159.61290462340406 425.75912968502917,159.61290462340406 424.6838608760947,159.61290462340406 419.8451512358895,160.15053902787133 417.69461361802047,161.2258078368058 414.468807191217,161.2258078368058 413.3935383822825,161.76344224127308 413.3935383822825,161.2258078368058 413.3935383822825,160.68817343233857 412.8559039778153,160.68817343233857 411.78063516888074,160.68817343233857 408.01719433761,161.2258078368058 406.9419255286755,161.2258078368058 406.4042911242083,161.2258078368058 406.4042911242083,160.15053902787133 408.55482874207723,158.0000014100023 410.70536635994625,155.84946379213335 411.2430007644135,155.84946379213335 411.2430007644135,155.31182938766608 410.70536635994625,155.31182938766608 409.09246314654456,155.84946379213335 400.4903126750686,159.61290462340406 394.5763342259289,162.83871105020756 389.19999018125645,166.064517477011 387.5870869678547,166.60215188147828 387.5870869678547,167.13978628594558 387.5870869678547,166.60215188147828 388.1247213723219,166.064517477011 389.19999018125645,164.45161426360932 391.8881622035927,160.15053902787133 394.03869982146165,157.4623670055351 394.5763342259289,156.38709819660062 394.5763342259289,155.84946379213335 394.5763342259289,156.92473260106783 394.03869982146165,160.15053902787133 391.3505277991254,166.60215188147828 389.19999018125645,171.97849592615074 388.6623557767892,175.20430235295424 388.6623557767892,175.74193675742146 390.27525899019093,175.20430235295424 394.5763342259289,172.516130330618 401.5655814840031,167.67742069041276 402.6408502929376,167.13978628594558 403.1784846974048,166.60215188147828 403.1784846974048,167.13978628594558 403.1784846974048,167.67742069041276 403.1784846974048,169.82795830828178 401.5655814840031,174.1290335440197 399.4150438661341,177.89247437529048 399.4150438661341,179.50537758869217 399.4150438661341,180.04301199315944 399.4150438661341,179.50537758869217 399.4150438661341,178.96774318422496 400.4903126750686,178.4301087797577 402.10321588847034,175.20430235295424 402.6408502929376,174.1290335440197 403.1784846974048,173.5913991395525 403.1784846974048,174.66666794848697 402.6408502929376,177.3548399708232 400.4903126750686,182.1935496110284 397.80214065273236,186.49462484676638 396.7268718437979,188.64516246463535 396.7268718437979,189.7204312735699 396.7268718437979,189.18279686910262 396.7268718437979,189.7204312735699 396.7268718437979,192.40860329590612 396.7268718437979,199.39785055398028 396.7268718437979,202.62365698078378 396.1892374393306,207.46236662098897 395.6516030348634,211.22580745225974 394.5763342259289,214.4516138790632 394.5763342259289,214.98924828353046 394.5763342259289,215.52688268799767 394.5763342259289,216.06451709246494 394.5763342259289,217.13978590139942 394.5763342259289,218.75268911480117 394.03869982146165,220.90322673267013 392.96343101252717,224.12903315947364 391.8881622035927,229.5053772041461 389.19999018125645,236.49462446222032 385.4365493499857,244.559140529229 382.74837732764945,250.4731189783687 381.13547411424776,253.6989254051722 382.74837732764945,251.54838778730323 386.5118181589202,247.78494695603246 389.73762458572367,245.09677493369622 391.8881622035927,243.48387172029453 392.4257966080599,242.94623731582726 392.4257966080599,244.02150612476174 392.4257966080599,245.6344093381635 392.4257966080599,249.3978501694342 392.4257966080599,250.4731189783687 392.96343101252717,250.4731189783687 393.5010654169944,250.4731189783687 394.5763342259289,249.93548457390148 396.7268718437979,248.860215764967 398.87740946166684,247.78494695603246 401.02794707953586,246.70967814709797 403.1784846974048,245.09677493369622 404.2537535063393,245.09677493369622 404.7913879108066,245.09677493369622 404.7913879108066,245.6344093381635 404.7913879108066,247.78494695603246 403.7161191018721,250.4731189783687 402.10321588847034,252.6236565962377 401.02794707953586,254.23655980963946 401.02794707953586,254.77419421410667 400.4903126750686,254.77419421410667 399.9526782706014,254.77419421410667 396.1892374393306,254.77419421410667 378.44730209191147,255.84946302304115 369.84515162043556,257.4623662364429 365.00644198023036,259.07526944984465 363.3935387668286,259.6129038543119 362.85590436236134,259.6129038543119 362.85590436236134,259.07526944984465 362.85590436236134,257.4623662364429 362.85590436236134,254.77419421410667 364.4688075757631,251.01075338283596 366.08171078916484,249.3978501694342 366.61934519363206,249.3978501694342 366.61934519363206,249.93548457390148 366.08171078916484,251.01075338283596 362.85590436236134,253.6989254051722 360.1677323400251,255.31182861857394 358.55482912662336,255.84946302304115 358.01719472215615,256.3870974275084 358.01719472215615,255.84946302304115 358.01719472215615,255.31182861857394 359.6300979355579,252.08602219177044 360.1677323400251,252.08602219177044 359.6300979355579,252.08602219177044 357.4795603176889,252.08602219177044 353.17848508195095,253.16129100070492 346.72687222834395,254.23655980963946 341.3505281836715,255.84946302304115 338.12472175686804,256.3870974275084 337.5870873524008,256.9247318319757 337.5870873524008,256.3870974275084 339.1999905658025,253.6989254051722 344.0387002060077,249.3978501694342 346.18923782387674,246.70967814709797 347.2645066328112,246.17204374263076 346.72687222834395,246.70967814709797 345.65160341940947,248.860215764967 344.0387002060077,252.08602219177044 343.50106580154045,253.6989254051722 343.50106580154045,254.23655980963946 344.0387002060077,254.23655980963946 347.2645066328112,253.6989254051722 355.3290226998199,251.54838778730323 365.5440763846976,248.32258136049973 376.2967644740425,246.17204374263076 382.21074292318224,245.6344093381635 383.823646136584,245.6344093381635 384.3612805410512,245.6344093381635 384.3612805410512,246.70967814709797 384.3612805410512,248.860215764967 383.823646136584,251.54838778730323 383.2860117321167,253.16129100070492 383.2860117321167,253.6989254051722 383.823646136584,253.6989254051722 384.3612805410512,253.6989254051722 388.1247213723219,253.16129100070492 395.6516030348634,251.01075338283596 405.32902231527373,248.32258136049973 412.8559039778153,247.24731255156524 416.619344809086,247.24731255156524 417.69461361802047,247.24731255156524 418.23224802248774,247.78494695603246 418.23224802248774,249.93548457390148 418.23224802248774,254.77419421410667 417.69461361802047,259.07526944984465 417.69461361802047,261.7634414721809 418.76988242695495,261.7634414721809 419.8451512358895,260.6881726632464 425.22149528056195,256.9247318319757 432.2107425386361,251.01075338283596 440.27525860564486,244.02150612476174 448.3397746726535,238.64516208008928 452.64084990839154,234.88172124881856 454.2537531217932,234.3440868443513 454.2537531217932,236.49462446222032 454.2537531217932,239.72043088902376 453.71611871732597,242.40860291136 453.71611871732597,242.94623731582726 453.71611871732597,241.87096850689278 454.7913875262605,237.5698932711548 456.40429073966226,233.2688180354168 458.017193953064,230.5806460130806 458.5548283575312,229.5053772041461 459.09246276199843,229.5053772041461 459.09246276199843,228.96774279967886 459.09246276199843,230.0430116086133 459.09246276199843,231.65591482201506 459.09246276199843,234.3440868443513 458.5548283575312,235.95699005775305 459.09246276199843,234.3440868443513 461.2430003798674,230.0430116086133 465.0064412111381,223.59139875500637 468.2322476379416,218.75268911480117 469.30751644687615,217.13978590139942 469.84515085134336,217.13978590139942 469.84515085134336,219.29032351926844 469.84515085134336,224.12903315947364 468.2322476379416,230.5806460130806 466.08171002007265,235.41935565328578 465.54407561560544,237.03225886668753 465.0064412111381,237.5698932711548 465.0064412111381,237.03225886668753 465.0064412111381,236.49462446222032 466.08171002007265,235.41935565328578 467.1569788290072,230.5806460130806 469.84515085134336,224.12903315947364 473.07095727814686,218.2150547103339 473.608591682614,217.13978590139942 473.608591682614,216.6021514969322 473.608591682614,217.13978590139942 473.608591682614,219.82795792373565 471.4580540647451,226.2795707773426 469.30751644687615,231.65591482201506 468.76988204240894,233.8064524398841 468.76988204240894,234.3440868443513 468.76988204240894,233.8064524398841 470.3827852558105,230.5806460130806 474.6838604915486,222.51612994607189 483.8236453674918,208.00000102545624 489.73762381663147,197.78494734057858 492.42579583896776,191.87096889143885 493.5010646479022,190.79570008250437 493.5010646479022,191.87096889143885 493.5010646479022,193.4838721048406 492.96343024343497,200.47311936291484 490.812892625566,211.22580745225974 489.19998941216426,220.36559232820292 488.1247206032297,223.59139875500637 488.1247206032297,224.12903315947364 488.66235500769704,224.12903315947364 490.2752582210987,220.90322673267013 495.11396786130393,213.91397947459598 500.4903119059764,204.77419459865274 505.86665595064886,196.17204412717683 508.0171935685178,192.94623770037333 508.55482797298515,192.94623770037333 508.55482797298515,194.02150650930784 508.55482797298515,196.17204412717683 506.9419247595834,206.3870978120545 503.1784839283127,218.75268911480117 500.4903119059764,227.89247399074435 499.9526775015092,230.5806460130806 499.9526775015092,231.11828041754785 500.4903119059764,230.5806460130806 504.79138714171444,226.2795707773426 511.2429999953213,218.2150547103339 518.2322472533956,209.612904238858 524.1462257025353,201.5483881718493 526.2967633204041,198.8602161495131 526.2967633204041,199.93548495844755 526.2967633204041,201.5483881718493 526.2967633204041,204.77419459865274 524.6838601070026,211.76344185672696 523.608591298068,216.06451709246494 523.0709568936009,217.13978590139942 523.608591298068,216.6021514969322 524.1462257025353,214.4516138790632 525.2214945114697,212.30107626119423 525.759128915937,211.22580745225974 525.759128915937,210.68817304779247 " style="color: rgb(16, 237, 237);"/><polyline fill="none" stroke="#990000" stroke-width="2" stroke-linejoin="round" stroke-dashoffset="" fill-rule="nonzero" marker-start="" marker-mid="" marker-end="" id="svg_7" points="446.72687145925175,242.40860291136 446.18923705478454,242.40860291136 445.65160265031733,242.40860291136 445.11396824585,242.40860291136 444.5763338413828,242.40860291136 444.0386994369156,242.40860291136 443.50106503244825,242.40860291136 442.96343062798104,242.40860291136 442.4257962235138,242.40860291136 441.8881618190466,242.40860291136 441.8881618190466,242.94623731582726 441.3505274145793,242.94623731582726 440.8128930101121,242.94623731582726 440.27525860564486,242.94623731582726 439.73762420117754,242.94623731582726 439.1999897967103,242.94623731582726 438.6623553922431,242.94623731582726 438.1247209877758,242.94623731582726 437.5870865833086,242.94623731582726 " style="color: rgb(16, 237, 237);"/><polyline fill="none" stroke="#990000" stroke-width="2" stroke-linejoin="round" stroke-dashoffset="" fill-rule="nonzero" marker-start="" marker-mid="" marker-end="" id="svg_8" points="442.96343062798104,242.94623731582726 443.50106503244825,242.94623731582726 444.0386994369156,242.94623731582726 444.5763338413828,242.94623731582726 445.11396824585,242.94623731582726 " style="color: rgb(16, 237, 237);"/><polyline fill="none" stroke="#990000" stroke-width="2" stroke-linejoin="round" stroke-dashoffset="" fill-rule="nonzero" marker-start="" marker-mid="" marker-end="" id="svg_9" points="445.11396824585,242.94623731582726 445.11396824585,242.40860291136 445.11396824585,241.87096850689278 445.65160265031733,241.87096850689278 445.65160265031733,241.3333341024255 446.18923705478454,241.3333341024255 446.72687145925175,241.3333341024255 446.72687145925175,240.7956996979583 446.72687145925175,240.25806529349103 447.2645058637191,240.25806529349103 447.2645058637191,239.72043088902376 447.8021402681863,239.72043088902376 448.3397746726535,239.72043088902376 448.3397746726535,239.18279648455655 448.3397746726535,238.64516208008928 448.3397746726535,238.107527675622 448.3397746726535,237.5698932711548 448.3397746726535,237.03225886668753 448.3397746726535,236.49462446222032 448.8774090771207,236.49462446222032 448.8774090771207,235.95699005775305 448.8774090771207,235.41935565328578 448.8774090771207,234.88172124881856 448.8774090771207,234.3440868443513 449.41504348158804,233.8064524398841 449.95267788605526,233.2688180354168 449.95267788605526,232.73118363094954 " style="color: rgb(16, 237, 237);"/><polyline fill="none" stroke="#990000" stroke-width="2" stroke-linejoin="round" stroke-dashoffset="" fill-rule="nonzero" marker-start="" marker-mid="" marker-end="" id="svg_10" points="449.95267788605526,231.65591482201506 449.95267788605526,232.19354922648236 449.95267788605526,232.73118363094954 449.95267788605526,233.2688180354168 449.95267788605526,233.8064524398841 449.95267788605526,234.3440868443513 449.95267788605526,234.88172124881856 449.95267788605526,235.41935565328578 449.95267788605526,235.95699005775305 449.41504348158804,235.95699005775305 449.41504348158804,236.49462446222032 449.41504348158804,237.03225886668753 448.8774090771207,237.03225886668753 448.8774090771207,237.5698932711548 448.3397746726535,237.5698932711548 " style="color: rgb(16, 237, 237);"/><polyline fill="none" stroke="#ecabab" stroke-width="2" stroke-linejoin="round" stroke-dashoffset="" fill-rule="nonzero" marker-start="" marker-mid="" marker-end="" id="svg_11" points="420.92042004482397,173.05376473508522 420.3827856403567,174.1290335440197 419.8451512358895,174.1290335440197 419.8451512358895,174.66666794848697 420.3827856403567,174.66666794848697 421.99568885375845,174.66666794848697 424.6838608760947,173.5913991395525 426.29676408949643,172.516130330618 427.3720328984309,172.516130330618 426.83439849396365,173.05376473508522 425.75912968502917,174.66666794848697 423.6085920671602,178.4301087797577 421.99568885375845,181.11828080209392 421.4580544492912,182.1935496110284 421.4580544492912,182.73118401549567 421.99568885375845,182.73118401549567 423.07095766269293,182.73118401549567 425.22149528056195,181.6559152065612 427.3720328984309,180.04301199315944 427.9096673028982,179.50537758869217 427.9096673028982,180.04301199315944 427.9096673028982,182.1935496110284 426.83439849396365,184.88172163336463 425.22149528056195,188.10752806016814 424.1462264716274,188.64516246463535 424.6838608760947,188.64516246463535 426.29676408949643,187.56989365570087 428.4473017073654,185.95699044229912 429.5225705162999,185.4193560378319 429.5225705162999,185.95699044229912 428.98493611183267,187.56989365570087 426.29676408949643,192.94623770037333 425.22149528056195,195.09677531824235 424.6838608760947,196.17204412717683 425.75912968502917,196.17204412717683 426.83439849396365,195.6344097227096 428.4473017073654,194.55914091377508 428.98493611183267,194.55914091377508 428.98493611183267,195.6344097227096 427.3720328984309,201.5483881718493 424.1462264716274,205.84946340758728 422.5333232582257,209.612904238858 421.99568885375845,210.68817304779247 421.4580544492912,210.68817304779247 421.99568885375845,210.68817304779247 422.5333232582257,210.1505386433252 424.1462264716274,209.612904238858 426.83439849396365,208.5376354299235 428.4473017073654,208.00000102545624 428.98493611183267,207.46236662098897 428.98493611183267,208.00000102545624 428.98493611183267,208.5376354299235 428.98493611183267,210.1505386433252 427.3720328984309,212.83871066566144 424.6838608760947,216.06451709246494 423.6085920671602,218.2150547103339 423.6085920671602,218.75268911480117 423.6085920671602,219.29032351926844 424.1462264716274,219.29032351926844 425.75912968502917,219.29032351926844 430.06020492076715,218.2150547103339 433.82364575203786,217.13978590139942 436.51181777437415,216.6021514969322 437.04945217884136,216.6021514969322 436.51181777437415,217.13978590139942 434.3612801565051,220.36559232820292 431.13547372970163,224.12903315947364 428.98493611183267,227.3548395862771 427.9096673028982,228.96774279967886 427.9096673028982,230.0430116086133 428.4473017073654,230.0430116086133 430.5978393252344,228.96774279967886 434.3612801565051,225.7419363728754 435.4365489654396,225.20430196840812 435.9741833699068,225.20430196840812 435.9741833699068,225.7419363728754 435.9741833699068,226.2795707773426 435.9741833699068,228.43010839521162 434.8989145609724,231.11828041754785 434.3612801565051,232.73118363094954 433.82364575203786,233.2688180354168 434.8989145609724,233.2688180354168 437.5870865833086,232.73118363094954 439.1999897967103,232.19354922648236 439.73762420117754,232.19354922648236 439.1999897967103,233.2688180354168 437.5870865833086,235.41935565328578 435.9741833699068,237.03225886668753 435.4365489654396,238.64516208008928 434.8989145609724,239.18279648455655 434.8989145609724,237.5698932711548 437.04945217884136,234.3440868443513 439.1999897967103,231.11828041754785 439.73762420117754,230.0430116086133 438.6623553922431,230.0430116086133 435.4365489654396,230.5806460130806 430.06020492076715,231.11828041754785 427.9096673028982,231.11828041754785 427.3720328984309,231.11828041754785 427.9096673028982,230.0430116086133 430.06020492076715,227.3548395862771 432.2107425386361,224.6666675639409 432.7483769431034,223.05376435053915 433.28601134757065,223.05376435053915 432.7483769431034,223.05376435053915 432.2107425386361,223.05376435053915 431.6731081341689,223.59139875500637 430.06020492076715,224.12903315947364 429.5225705162999,224.6666675639409 430.06020492076715,222.51612994607189 432.2107425386361,220.36559232820292 433.82364575203786,217.13978590139942 434.3612801565051,216.06451709246494 434.8989145609724,216.06451709246494 433.82364575203786,216.06451709246494 432.7483769431034,216.6021514969322 428.4473017073654,218.2150547103339 425.22149528056195,219.82795792373565 424.1462264716274,220.90322673267013 423.6085920671602,220.90322673267013 423.6085920671602,219.82795792373565 425.22149528056195,218.2150547103339 427.3720328984309,214.98924828353046 428.98493611183267,213.3763450701287 429.5225705162999,212.83871066566144 428.4473017073654,213.91397947459598 425.75912968502917,215.52688268799767 424.1462264716274,216.6021514969322 423.6085920671602,217.13978590139942 424.1462264716274,216.6021514969322 425.22149528056195,215.52688268799767 430.06020492076715,210.68817304779247 435.4365489654396,205.84946340758728 439.1999897967103,202.0860225763165 440.8128930101121,199.93548495844755 441.3505274145793,199.93548495844755 440.8128930101121,199.93548495844755 440.27525860564486,199.93548495844755 435.9741833699068,202.0860225763165 430.5978393252344,204.23656019418553 425.22149528056195,206.3870978120545 421.99568885375845,206.92473221652176 421.4580544492912,206.92473221652176 421.4580544492912,206.3870978120545 421.99568885375845,205.31182900312 424.6838608760947,201.5483881718493 428.98493611183267,195.09677531824235 433.28601134757065,189.7204312735699 435.4365489654396,187.56989365570087 435.4365489654396,187.03225925123365 433.82364575203786,187.03225925123365 429.5225705162999,189.18279686910262 428.98493611183267,189.7204312735699 428.4473017073654,189.7204312735699 428.4473017073654,189.18279686910262 428.4473017073654,187.03225925123365 428.4473017073654,185.95699044229912 428.4473017073654,184.88172163336463 428.4473017073654,184.34408722889742 428.4473017073654,183.80645282443015 428.4473017073654,182.73118401549567 " style="color: rgb(16, 237, 237);"/><polyline fill="none" stroke="#ecabab" stroke-width="2" stroke-linejoin="round" stroke-dashoffset="" fill-rule="nonzero" marker-start="" marker-mid="" marker-end="" id="svg_12" points="421.99568885375845,139.1827972536487 420.92042004482397,140.25806606258323 421.4580544492912,140.25806606258323 421.99568885375845,140.25806606258323 423.6085920671602,139.1827972536487 425.22149528056195,138.1075284447142 426.29676408949643,136.49462523131245 426.83439849396365,136.49462523131245 426.83439849396365,137.03225963577972 425.75912968502917,137.569894040247 423.07095766269293,140.79570046705044 421.99568885375845,141.3333348715177 421.99568885375845,141.87096927598492 422.5333232582257,141.87096927598492 422.5333232582257,141.3333348715177 423.07095766269293,140.79570046705044 425.22149528056195,139.72043165811596 426.83439849396365,138.64516284918147 427.3720328984309,138.1075284447142 427.3720328984309,138.64516284918147 427.3720328984309,139.72043165811596 426.83439849396365,140.25806606258323 426.83439849396365,141.3333348715177 426.83439849396365,141.87096927598492 428.4473017073654,141.3333348715177 431.6731081341689,139.1827972536487 433.82364575203786,138.1075284447142 434.8989145609724,138.1075284447142 434.3612801565051,139.1827972536487 432.7483769431034,140.79570046705044 431.6731081341689,141.87096927598492 432.2107425386361,141.87096927598492 434.3612801565051,141.3333348715177 438.1247209877758,139.72043165811596 440.8128930101121,138.64516284918147 441.3505274145793,138.64516284918147 440.8128930101121,138.64516284918147 439.73762420117754,139.72043165811596 437.5870865833086,141.3333348715177 436.51181777437415,141.87096927598492 436.51181777437415,142.4086036804522 437.5870865833086,141.87096927598492 440.8128930101121,141.3333348715177 441.8881618190466,140.25806606258323 441.8881618190466,141.3333348715177 441.8881618190466,141.87096927598492 442.4257962235138,141.87096927598492 442.96343062798104,141.87096927598492 442.96343062798104,142.4086036804522 442.4257962235138,142.4086036804522 441.8881618190466,142.4086036804522 " style="color: rgb(16, 237, 237);"/></g></svg>