<svg xmlns="http://www.w3.org/2000/svg" xmlns:se="http://svg-edit.googlecode.com" xmlns:xlink="http://www.w3.org/1999/xlink" xmlns:dc="http://purl.org/dc/elements/1.1/" xmlns:cc="http://creativecommons.org/ns#" xmlns:rdf="http://www.w3.org/1999/02/22-rdf-syntax-ns#" xmlns:inkscape="http://www.inkscape.org/namespaces/inkscape" width="165" height="136">                                    <title>my vector image</title>                                    <!-- Created with Vector Paint - http://www.vectorpaint.yaks.com/ https://chrome.google.com/webstore/detail/hnbpdiengicdefcjecjbnjnoifekhgdo -->                                    <rect id="backgroundrect" width="100%" height="100%" x="0" y="0" fill="#FFFFFF" stroke="none" class="" style=""/>                                <g class="currentLayer" style=""><title>Layer 1</title><polyline fill="none" stroke="#222222" stroke-width="2" stroke-linejoin="round" stroke-dashoffset="" fill-rule="nonzero" marker-start="" marker-mid="" marker-end="" id="svg_1" points="141.2753143310547,52.46519470214844 139.12477111816406,47.08885192871094 138.0495147705078,45.4759521484375 135.8989715576172,41.17488098144531 132.6731719970703,36.33616638183594 128.37208557128906,29.884552001953125 123.53340148925781,23.432937622070312 117.61940002441406,17.518966674804688 112.24305725097656,13.217880249023438 107.94200134277344,10.529708862304688 103.10328674316406,8.379180908203125 98.26457214355469,6.766265869140625 92.88822937011719,5.1533660888671875 86.97425842285156,3.54046630859375 81.59791564941406,2.4651947021484375 76.22157287597656,2.4651947021484375 72.99574279785156,2.4651947021484375 69.23231506347656,2.4651947021484375 66.00651550292969,2.4651947021484375 61.16779708862305,2.4651947021484375 57.40433883666992,3.54046630859375 53.64091110229492,4.078102111816406 48.80219650268555,4.6157379150390625 45.57639694213867,5.691009521484375 42.88822555541992,6.766265869140625 40.7376823425293,7.8415374755859375 36.43659591674805,9.992080688476562 34.28608322143555,12.142623901367188 31.59791374206543,14.29315185546875 29.98499870300293,15.906051635742188 27.834455490112305,18.056594848632812 25.68391227722168,20.744766235351562 24.60865592956543,22.357666015625 22.458112716674805,25.583480834960938 20.84522819519043,28.271652221679688 19.769941329956055,30.959823608398438 18.15705680847168,32.572723388671875 16.54414176940918,35.260894775390625 13.855969429016113,40.099609375 12.780682563781738,42.78778076171875 11.167798042297363,46.013580322265625 9.554883003234863,49.23939514160156 7.941998481750488,51.92756652832031 6.866711616516113,54.61573791503906 5.791455268859863,57.30390930175781 5.253827095031738,61.60498046875 3.6409122943878174,68.05659484863281 3.1032841205596924,71.82003784179688 3.1032841205596924,73.43293762207031 3.1032841205596924,76.12110900878906 3.1032841205596924,80.42218017578125 3.1032841205596924,83.64799499511719 3.1032841205596924,87.41143798828125 3.1032841205596924,91.17488098144531 3.1032841205596924,93.86305236816406 3.6409122943878174,96.55122375488281 4.1785407066345215,98.70175170898438 5.791455268859863,101.92756652832031 6.3290839195251465,104.61573791503906 7.941998481750488,107.30390930175781 9.017254829406738,109.99208068847656 10.092511177062988,111.60498046875 12.243054389953613,114.83079528808594 13.855969429016113,116.9813232421875 15.468884468078613,119.13186645507812 18.694684982299805,121.28239440917969 22.99574089050293,124.50820922851562 26.22157096862793,125.58348083496094 30.522626876831055,127.7340087890625 36.9742546081543,130.42218017578125 42.3505973815918,131.49745178222656 47.7269401550293,133.1103515625 54.71616744995117,134.18563842773438 61.16779708862305,134.7232666015625 69.23231506347656,134.7232666015625 74.07102966308594,134.7232666015625 79.98500061035156,134.7232666015625 86.43659973144531,134.7232666015625 92.35060119628906,134.7232666015625 99.33982849121094,134.7232666015625 105.79145812988281,134.18563842773438 112.24305725097656,133.64797973632812 117.08177185058594,132.03509521484375 121.92048645019531,130.42218017578125 126.75920104980469,127.7340087890625 133.74842834472656,125.04583740234375 139.6624298095703,122.357666015625 145.57640075683594,119.66949462890625 147.72694396972656,118.05659484863281 150.95274353027344,115.90605163574219 153.10328674316406,114.29315185546875 154.71617126464844,112.68025207519531 155.7914581298828,110.52970886230469 157.4043426513672,108.37918090820312 158.47962951660156,106.2286376953125 159.0172576904297,104.07809448242188 159.5548858642578,101.38992309570312 160.09251403808594,99.23939514160156 161.1678009033203,94.93830871582031 161.70542907714844,92.25013732910156 161.70542907714844,90.63723754882812 162.24305725097656,88.48670959472656 162.7806854248047,86.33616638183594 163.31834411621094,84.7232666015625 163.31834411621094,82.03509521484375 163.31834411621094,80.42218017578125 163.85597229003906,77.7340087890625 164.3936004638672,76.12110900878906 164.3936004638672,74.50820922851562 164.3936004638672,73.43293762207031 164.3936004638672,71.82003784179688 164.3936004638672,69.66949462890625 164.3936004638672,68.05659484863281 164.3936004638672,66.44369506835938 164.3936004638672,64.29315185546875 164.3936004638672,62.14262390136719 164.3936004638672,60.52970886230469 164.3936004638672,58.91680908203125 163.85597229003906,56.766265869140625 163.31834411621094,54.61573791503906 162.24305725097656,52.46519470214844 160.09251403808594,48.701751708984375 159.5548858642578,47.62648010253906 158.47962951660156,44.93830871582031 157.94200134277344,43.86305236816406 157.4043426513672,43.325408935546875 155.7914581298828,42.25013732910156 153.6409149169922,43.325408935546875 152.56565856933594,45.4759521484375 " style="color: rgb(0, 0, 0);" class=""/><polyline fill="none" stroke="#990000" stroke-width="2" stroke-linejoin="round" stroke-dashoffset="" fill-rule="nonzero" marker-start="" marker-mid="" marker-end="" id="svg_2" points="116.54414367675781,64.83079528808594 116.54414367675781,64.83079528808594 116.54414367675781,63.755523681640625 116.54414367675781,63.21788024902344 116.54414367675781,62.68025207519531 115.46885681152344,61.60498046875 113.31834411621094,59.99208068847656 112.24305725097656,58.91680908203125 109.01725769042969,57.30390930175781 106.86671447753906,55.691009521484375 104.71617126464844,54.078094482421875 102.02799987792969,52.46519470214844 99.87748718261719,50.852294921875 97.72694396972656,49.77702331542969 95.57640075683594,48.701751708984375 94.50114440917969,48.16412353515625 92.35060119628906,47.08885192871094 90.20005798339844,45.4759521484375 87.51188659667969,43.86305236816406 85.36134338378906,42.78778076171875 82.13554382324219,41.17488098144531 80.52262878417969,40.637237548828125 79.44737243652344,40.637237548828125 78.37208557128906,40.099609375 77.83445739746094,39.56196594238281 77.29682922363281,39.02433776855469 76.75920104980469,39.02433776855469 75.68391418457031,39.02433776855469 74.60865783691406,38.48670959472656 73.53340148925781,37.949066162109375 72.45811462402344,37.949066162109375 71.92048645019531,37.41143798828125 70.84523010253906,37.41143798828125 70.30757141113281,37.41143798828125 69.76994323730469,37.41143798828125 69.23231506347656,37.41143798828125 68.69468688964844,37.41143798828125 68.15705871582031,37.41143798828125 67.61940002441406,37.41143798828125 67.08177185058594,37.41143798828125 66.54414367675781,37.949066162109375 66.00651550292969,37.949066162109375 65.46885681152344,37.949066162109375 65.46885681152344,38.48670959472656 64.93122863769531,38.48670959472656 64.93122863769531,39.02433776855469 64.39360046386719,39.56196594238281 64.39360046386719,40.099609375 64.39360046386719,40.637237548828125 64.39360046386719,41.17488098144531 63.8559684753418,41.17488098144531 63.31834030151367,42.25013732910156 63.31834030151367,42.78778076171875 63.31834030151367,43.325408935546875 63.31834030151367,44.40068054199219 62.78068161010742,46.013580322265625 62.2430534362793,47.08885192871094 61.70542526245117,47.62648010253906 61.70542526245117,48.701751708984375 61.70542526245117,49.23939514160156 61.70542526245117,49.77702331542969 61.70542526245117,50.314666748046875 61.70542526245117,51.389923095703125 61.70542526245117,51.92756652832031 61.70542526245117,52.46519470214844 61.70542526245117,53.54046630859375 61.70542526245117,54.078094482421875 61.70542526245117,55.691009521484375 61.70542526245117,56.766265869140625 61.70542526245117,58.379180908203125 61.70542526245117,59.99208068847656 61.70542526245117,61.60498046875 61.70542526245117,62.68025207519531 61.70542526245117,64.29315185546875 61.70542526245117,65.90605163574219 61.70542526245117,67.51896667480469 61.70542526245117,69.13186645507812 61.70542526245117,70.74476623535156 61.70542526245117,72.357666015625 61.70542526245117,74.50820922851562 61.70542526245117,76.65875244140625 61.70542526245117,77.19638061523438 61.70542526245117,78.27165222167969 61.70542526245117,79.88455200195312 61.70542526245117,80.95982360839844 61.70542526245117,81.49745178222656 62.2430534362793,82.57272338867188 62.2430534362793,83.64799499511719 62.2430534362793,84.7232666015625 62.2430534362793,85.79852294921875 62.2430534362793,87.41143798828125 62.2430534362793,89.02433776855469 62.2430534362793,90.099609375 62.2430534362793,91.17488098144531 62.2430534362793,92.25013732910156 62.2430534362793,93.32540893554688 62.2430534362793,94.40068054199219 62.2430534362793,95.4759521484375 62.78068161010742,96.55122375488281 62.78068161010742,98.16412353515625 63.31834030151367,99.23939514160156 63.31834030151367,100.31466674804688 64.39360046386719,102.46519470214844 64.93122863769531,103.00283813476562 65.46885681152344,104.07809448242188 65.46885681152344,104.61573791503906 66.54414367675781,105.15336608886719 67.08177185058594,105.15336608886719 68.69468688964844,105.69100952148438 69.76994323730469,106.2286376953125 71.38285827636719,106.2286376953125 72.99574279785156,106.2286376953125 74.07102966308594,106.76626586914062 76.75920104980469,106.76626586914062 80.52262878417969,106.76626586914062 83.21080017089844,105.15336608886719 85.89897155761719,104.07809448242188 88.04951477050781,103.00283813476562 90.73768615722656,101.92756652832031 92.88822937011719,100.852294921875 95.57640075683594,100.31466674804688 96.11402893066406,99.77702331542969 97.18931579589844,99.23939514160156 98.80220031738281,98.16412353515625 100.41511535644531,97.08885192871094 102.02799987792969,95.4759521484375 104.71617126464844,93.86305236816406 106.32908630371094,92.25013732910156 108.47962951660156,91.17488098144531 110.09251403808594,90.099609375 110.63017272949219,89.56196594238281 111.70542907714844,88.48670959472656 112.78068542480469,87.94906616210938 113.31834411621094,86.87379455566406 114.39360046386719,86.33616638183594 114.93122863769531,85.79852294921875 116.00651550292969,84.7232666015625 116.54414367675781,84.18562316894531 117.08177185058594,82.57272338867188 117.61940002441406,82.03509521484375 118.15705871582031,81.49745178222656 118.15705871582031,80.95982360839844 118.69468688964844,79.88455200195312 118.69468688964844,79.346923828125 118.69468688964844,78.80928039550781 119.23231506347656,77.7340087890625 119.76994323730469,77.19638061523438 119.76994323730469,76.12110900878906 120.30757141113281,75.04583740234375 120.30757141113281,73.97056579589844 120.30757141113281,72.89530944824219 120.30757141113281,71.82003784179688 120.30757141113281,70.74476623535156 120.30757141113281,70.20713806152344 120.30757141113281,69.13186645507812 120.30757141113281,68.59422302246094 120.30757141113281,67.51896667480469 120.30757141113281,66.9813232421875 120.30757141113281,65.90605163574219 120.30757141113281,64.83079528808594 120.30757141113281,63.755523681640625 120.30757141113281,62.68025207519531 120.30757141113281,62.14262390136719 119.76994323730469,59.99208068847656 119.23231506347656,58.379180908203125 119.23231506347656,57.84153747558594 " style="color: rgb(0, 0, 0);" class=""/><polyline fill="none" stroke="#ffa100" stroke-width="2" stroke-linejoin="round" stroke-dashoffset="" fill-rule="nonzero" marker-start="" marker-mid="" marker-end="" id="svg_3" points="69.23231506347656,40.637237548828125 69.23231506347656,41.17488098144531 69.23231506347656,41.71250915527344 69.23231506347656,42.25013732910156 68.69468688964844,42.25013732910156 68.69468688964844,43.325408935546875 68.15705871582031,44.40068054199219 68.15705871582031,44.93830871582031 67.61940002441406,46.013580322265625 67.61940002441406,46.55122375488281 67.08177185058594,47.08885192871094 67.08177185058594,47.62648010253906 67.08177185058594,48.16412353515625 66.54414367675781,48.701751708984375 66.00651550292969,49.23939514160156 66.00651550292969,49.77702331542969 65.46885681152344,49.77702331542969 65.46885681152344,50.314666748046875 65.46885681152344,51.389923095703125 64.93122863769531,51.389923095703125 64.93122863769531,51.92756652832031 65.46885681152344,51.92756652832031 65.46885681152344,51.389923095703125 66.54414367675781,50.852294921875 69.76994323730469,49.23939514160156 73.53340148925781,47.08885192871094 76.22157287597656,46.013580322265625 77.29682922363281,44.93830871582031 77.83445739746094,44.93830871582031 77.83445739746094,45.4759521484375 77.29682922363281,46.013580322265625 77.29682922363281,47.08885192871094 74.60865783691406,50.852294921875 72.99574279785156,54.078094482421875 71.92048645019531,56.766265869140625 69.76994323730469,59.99208068847656 69.23231506347656,61.067352294921875 69.23231506347656,62.14262390136719 68.69468688964844,62.68025207519531 68.69468688964844,63.21788024902344 68.69468688964844,64.29315185546875 69.23231506347656,64.29315185546875 69.76994323730469,63.21788024902344 71.92048645019531,61.60498046875 74.07102966308594,59.454437255859375 77.29682922363281,57.84153747558594 80.52262878417969,54.078094482421875 83.21080017089844,51.92756652832031 84.82371520996094,50.852294921875 85.89897155761719,49.77702331542969 86.43659973144531,49.23939514160156 86.43659973144531,50.314666748046875 85.89897155761719,51.92756652832031 83.74842834472656,54.078094482421875 81.59791564941406,57.30390930175781 78.90974426269531,60.52970886230469 76.22157287597656,63.21788024902344 73.53340148925781,66.44369506835938 71.92048645019531,68.59422302246094 69.76994323730469,70.74476623535156 68.15705871582031,72.89530944824219 68.15705871582031,73.43293762207031 69.23231506347656,73.43293762207031 69.76994323730469,72.89530944824219 72.45811462402344,71.82003784179688 75.14628601074219,69.66949462890625 78.90974426269531,68.05659484863281 81.59791564941406,66.44369506835938 84.28608703613281,64.29315185546875 85.89897155761719,63.21788024902344 87.51188659667969,61.60498046875 89.66242980957031,59.99208068847656 90.20005798339844,59.454437255859375 90.20005798339844,59.99208068847656 89.12477111816406,61.60498046875 86.43659973144531,64.29315185546875 82.67317199707031,67.51896667480469 79.44737243652344,70.20713806152344 76.75920104980469,72.357666015625 73.53340148925781,75.58348083496094 71.92048645019531,77.19638061523438 71.38285827636719,78.80928039550781 70.84523010253906,79.88455200195312 71.38285827636719,79.88455200195312 71.92048645019531,79.346923828125 72.99574279785156,78.27165222167969 75.68391418457031,75.04583740234375 80.52262878417969,69.66949462890625 83.74842834472656,66.44369506835938 85.89897155761719,63.21788024902344 88.58714294433594,59.99208068847656 89.66242980957031,58.379180908203125 90.20005798339844,57.84153747558594 90.20005798339844,58.379180908203125 89.66242980957031,59.454437255859375 88.58714294433594,60.52970886230469 83.21080017089844,69.13186645507812 78.37208557128906,75.04583740234375 74.07102966308594,80.42218017578125 70.84523010253906,84.18562316894531 68.69468688964844,86.33616638183594 67.61940002441406,87.94906616210938 66.54414367675781,89.56196594238281 64.93122863769531,91.17488098144531 64.39360046386719,91.71250915527344 64.39360046386719,92.25013732910156 63.8559684753418,93.32540893554688 64.39360046386719,92.78778076171875 65.46885681152344,92.25013732910156 68.15705871582031,90.099609375 71.38285827636719,87.94906616210938 74.60865783691406,86.33616638183594 78.37208557128906,84.18562316894531 82.67317199707031,80.95982360839844 86.97425842285156,77.7340087890625 90.73768615722656,74.50820922851562 93.42585754394531,72.357666015625 95.57640075683594,69.13186645507812 97.18931579589844,67.51896667480469 98.26457214355469,66.44369506835938 98.80220031738281,65.36842346191406 98.80220031738281,64.83079528808594 99.33982849121094,64.29315185546875 99.33982849121094,64.83079528808594 98.80220031738281,65.36842346191406 98.80220031738281,65.90605163574219 95.57640075683594,70.20713806152344 91.81297302246094,73.43293762207031 88.04951477050781,78.27165222167969 84.28608703613281,81.49745178222656 81.06025695800781,84.7232666015625 78.37208557128906,86.87379455566406 77.29682922363281,88.48670959472656 76.22157287597656,89.56196594238281 75.68391418457031,90.63723754882812 75.14628601074219,91.17488098144531 75.14628601074219,91.71250915527344 74.60865783691406,92.25013732910156 74.07102966308594,92.25013732910156 74.07102966308594,92.78778076171875 74.07102966308594,93.32540893554688 73.53340148925781,94.40068054199219 72.99574279785156,94.93830871582031 72.45811462402344,95.4759521484375 72.45811462402344,96.01358032226562 72.45811462402344,96.55122375488281 72.45811462402344,96.01358032226562 72.99574279785156,95.4759521484375 73.53340148925781,95.4759521484375 75.68391418457031,93.86305236816406 77.29682922363281,92.78778076171875 79.44737243652344,91.17488098144531 81.59791564941406,90.099609375 83.74842834472656,89.02433776855469 86.43659973144531,87.94906616210938 88.04951477050781,86.87379455566406 89.66242980957031,85.79852294921875 90.73768615722656,84.7232666015625 92.35060119628906,84.18562316894531 93.42585754394531,83.1103515625 95.03877258300781,82.03509521484375 95.57640075683594,81.49745178222656 96.65165710449219,80.95982360839844 97.18931579589844,80.42218017578125 98.26457214355469,79.88455200195312 98.80220031738281,79.346923828125 99.33982849121094,78.80928039550781 99.87748718261719,78.27165222167969 100.95274353027344,77.19638061523438 101.49037170410156,76.65875244140625 102.02799987792969,76.65875244140625 102.02799987792969,76.12110900878906 103.10328674316406,75.04583740234375 103.64091491699219,75.04583740234375 104.17854309082031,74.50820922851562 104.17854309082031,73.97056579589844 104.71617126464844,73.97056579589844 105.25382995605469,73.43293762207031 105.25382995605469,72.89530944824219 105.79145812988281,72.357666015625 106.32908630371094,71.82003784179688 106.86671447753906,70.74476623535156 107.40434265136719,70.74476623535156 107.94200134277344,70.20713806152344 109.01725769042969,70.20713806152344 109.01725769042969,69.66949462890625 109.55488586425781,69.66949462890625 110.09251403808594,69.13186645507812 111.16780090332031,68.59422302246094 111.70542907714844,68.59422302246094 112.78068542480469,68.05659484863281 113.31834411621094,67.51896667480469 113.85597229003906,67.51896667480469 113.85597229003906,68.05659484863281 113.85597229003906,68.59422302246094 113.85597229003906,69.13186645507812 113.85597229003906,69.66949462890625 113.85597229003906,70.20713806152344 113.85597229003906,70.74476623535156 113.31834411621094,70.74476623535156 113.31834411621094,71.28239440917969 113.31834411621094,71.82003784179688 112.24305725097656,73.43293762207031 111.70542907714844,73.97056579589844 111.16780090332031,74.50820922851562 110.09251403808594,75.58348083496094 109.55488586425781,76.12110900878906 109.01725769042969,77.19638061523438 108.47962951660156,77.7340087890625 107.94200134277344,78.27165222167969 107.40434265136719,78.27165222167969 106.86671447753906,78.80928039550781 106.86671447753906,79.346923828125 106.32908630371094,79.88455200195312 105.79145812988281,80.42218017578125 105.25382995605469,80.95982360839844 104.71617126464844,81.49745178222656 103.64091491699219,82.57272338867188 103.10328674316406,83.1103515625 102.56565856933594,83.64799499511719 102.02799987792969,83.64799499511719 101.49037170410156,84.18562316894531 100.95274353027344,84.7232666015625 99.87748718261719,85.26089477539062 99.33982849121094,85.79852294921875 98.26457214355469,86.33616638183594 97.18931579589844,87.41143798828125 96.65165710449219,87.94906616210938 96.11402893066406,87.94906616210938 95.57640075683594,88.48670959472656 95.03877258300781,89.02433776855469 93.96348571777344,89.56196594238281 93.42585754394531,90.099609375 92.35060119628906,90.63723754882812 91.81297302246094,90.63723754882812 90.73768615722656,91.71250915527344 90.20005798339844,91.71250915527344 89.66242980957031,92.25013732910156 89.12477111816406,92.25013732910156 88.58714294433594,92.78778076171875 87.51188659667969,93.86305236816406 86.97425842285156,93.86305236816406 86.97425842285156,94.40068054199219 86.43659973144531,94.40068054199219 85.89897155761719,94.40068054199219 85.89897155761719,95.4759521484375 85.36134338378906,95.4759521484375 84.82371520996094,96.01358032226562 84.28608703613281,96.55122375488281 83.74842834472656,96.55122375488281 83.21080017089844,97.08885192871094 82.67317199707031,97.62648010253906 82.13554382324219,98.16412353515625 81.59791564941406,98.70175170898438 81.06025695800781,99.23939514160156 81.06025695800781,99.77702331542969 80.52262878417969,99.77702331542969 79.98500061035156,100.31466674804688 79.44737243652344,100.852294921875 78.90974426269531,101.38992309570312 78.37208557128906,101.92756652832031 78.37208557128906,102.46519470214844 77.83445739746094,102.46519470214844 78.37208557128906,102.46519470214844 78.90974426269531,102.46519470214844 78.90974426269531,101.92756652832031 79.44737243652344,101.92756652832031 79.98500061035156,101.38992309570312 80.52262878417969,101.38992309570312 81.06025695800781,100.852294921875 81.59791564941406,100.852294921875 82.67317199707031,100.31466674804688 83.21080017089844,99.77702331542969 83.74842834472656,99.77702331542969 84.28608703613281,99.77702331542969 85.36134338378906,98.70175170898438 85.89897155761719,98.70175170898438 86.43659973144531,98.70175170898438 86.97425842285156,98.70175170898438 87.51188659667969,98.70175170898438 88.04951477050781,98.16412353515625 88.58714294433594,97.62648010253906 89.12477111816406,97.62648010253906 89.66242980957031,97.62648010253906 90.20005798339844,97.08885192871094 90.73768615722656,97.08885192871094 91.27531433105469,97.08885192871094 91.81297302246094,96.55122375488281 92.35060119628906,96.55122375488281 92.88822937011719,96.55122375488281 93.42585754394531,96.01358032226562 93.96348571777344,96.01358032226562 93.96348571777344,95.4759521484375 94.50114440917969,94.93830871582031 95.03877258300781,94.93830871582031 95.57640075683594,94.93830871582031 96.11402893066406,94.40068054199219 96.65165710449219,94.40068054199219 96.65165710449219,93.86305236816406 97.18931579589844,93.86305236816406 98.26457214355469,93.32540893554688 98.26457214355469,92.78778076171875 98.80220031738281,92.78778076171875 98.80220031738281,92.25013732910156 99.33982849121094,92.25013732910156 99.87748718261719,92.25013732910156 99.87748718261719,91.71250915527344 100.41511535644531,91.71250915527344 100.95274353027344,91.17488098144531 100.95274353027344,90.63723754882812 101.49037170410156,90.63723754882812 101.49037170410156,90.099609375 102.02799987792969,90.099609375 102.56565856933594,90.099609375 102.56565856933594,89.56196594238281 103.10328674316406,89.56196594238281 103.10328674316406,89.02433776855469 103.10328674316406,88.48670959472656 103.64091491699219,88.48670959472656 103.64091491699219,87.94906616210938 104.17854309082031,87.41143798828125 104.71617126464844,87.41143798828125 104.71617126464844,86.87379455566406 104.71617126464844,86.33616638183594 105.25382995605469,86.33616638183594 105.25382995605469,85.79852294921875 105.79145812988281,85.79852294921875 105.79145812988281,85.26089477539062 106.32908630371094,85.26089477539062 106.32908630371094,84.7232666015625 106.86671447753906,84.18562316894531 107.40434265136719,84.18562316894531 107.40434265136719,83.64799499511719 107.94200134277344,83.64799499511719 107.94200134277344,83.1103515625 108.47962951660156,83.1103515625 " style="color: rgb(255, 161, 0);" class=""/><polyline fill="none" stroke="#00b6ff" stroke-width="2" stroke-linejoin="round" stroke-dashoffset="" fill-rule="nonzero" marker-start="" marker-mid="" marker-end="" id="svg_4" points="38.04951095581055,12.142623901367188 38.04951095581055,13.755523681640625 36.9742546081543,15.906051635742188 35.3613395690918,18.056594848632812 33.7484245300293,20.744766235351562 32.67316818237305,23.432937622070312 31.06025505065918,25.04583740234375 31.06025505065918,26.121109008789062 29.98499870300293,27.7340087890625 29.447370529174805,28.809280395507812 28.90974235534668,29.884552001953125 28.37208366394043,30.959823608398438 27.29682731628418,33.1103515625 26.759199142456055,33.1103515625 27.29682731628418,33.1103515625 28.37208366394043,32.572723388671875 28.90974235534668,32.03509521484375 31.06025505065918,30.42218017578125 33.7484245300293,28.271652221679688 36.9742546081543,25.583480834960938 39.66242599487305,23.9705810546875 42.3505973815918,21.820037841796875 45.57639694213867,20.207138061523438 47.7269401550293,19.131866455078125 49.87748336791992,17.518966674804688 52.02799606323242,16.443695068359375 54.71616744995117,14.830795288085938 58.4796257019043,12.680252075195312 59.55488204956055,12.142623901367188 62.2430534362793,11.067352294921875 63.31834030151367,9.992080688476562 64.93122863769531,9.992080688476562 65.46885681152344,9.992080688476562 64.93122863769531,9.992080688476562 64.39360046386719,10.529708862304688 63.31834030151367,11.067352294921875 60.09251022338867,12.680252075195312 56.8667106628418,14.29315185546875 53.1032829284668,16.443695068359375 48.26456832885742,19.66949462890625 46.1140251159668,21.820037841796875 43.96348190307617,23.432937622070312 41.81296920776367,25.04583740234375 39.1247673034668,27.196380615234375 36.43659591674805,28.809280395507812 34.82371139526367,30.42218017578125 33.7484245300293,32.03509521484375 31.59791374206543,34.18562316894531 29.98499870300293,35.79852294921875 28.37208366394043,37.41143798828125 26.759199142456055,38.48670959472656 25.146284103393555,40.099609375 24.071027755737305,41.17488098144531 23.53339958190918,42.25013732910156 22.458112716674805,42.78778076171875 22.458112716674805,43.325408935546875 21.92048454284668,43.86305236816406 21.382856369018555,44.93830871582031 20.30756950378418,46.013580322265625 19.769941329956055,46.55122375488281 19.769941329956055,47.08885192871094 18.694684982299805,47.62648010253906 18.694684982299805,48.16412353515625 18.15705680847168,48.16412353515625 18.15705680847168,48.701751708984375 18.694684982299805,48.701751708984375 19.23231315612793,48.701751708984375 21.92048454284668,47.62648010253906 27.834455490112305,43.86305236816406 31.59791374206543,42.25013732910156 34.28608322143555,40.099609375 38.04951095581055,39.02433776855469 40.20005416870117,37.949066162109375 42.3505973815918,36.33616638183594 45.03876876831055,35.260894775390625 47.18931198120117,33.64799499511719 50.41511154174805,31.497451782226562 52.56565475463867,29.884552001953125 55.25382614135742,28.809280395507812 56.8667106628418,28.271652221679688 58.4796257019043,27.196380615234375 59.55488204956055,26.65875244140625 61.16779708862305,25.583480834960938 62.78068161010742,23.9705810546875 64.93122863769531,22.895309448242188 66.54414367675781,21.282394409179688 67.08177185058594,20.744766235351562 68.15705871582031,20.207138061523438 69.23231506347656,19.66949462890625 69.76994323730469,19.131866455078125 70.30757141113281,19.131866455078125 70.84523010253906,18.594223022460938 71.92048645019531,17.518966674804688 72.99574279785156,16.9813232421875 72.99574279785156,16.443695068359375 73.53340148925781,16.443695068359375 74.07102966308594,15.906051635742188 75.14628601074219,15.368423461914062 76.22157287597656,14.29315185546875 76.75920104980469,13.755523681640625 77.83445739746094,13.217880249023438 77.83445739746094,12.680252075195312 77.83445739746094,12.142623901367188 78.37208557128906,12.142623901367188 77.29682922363281,12.142623901367188 76.75920104980469,12.680252075195312 75.68391418457031,13.755523681640625 72.45811462402344,16.443695068359375 69.76994323730469,18.056594848632812 67.08177185058594,20.207138061523438 64.39360046386719,22.357666015625 62.78068161010742,23.9705810546875 62.2430534362793,24.508209228515625 63.31834030151367,24.508209228515625 66.00651550292969,23.432937622070312 72.45811462402344,20.207138061523438 79.98500061035156,17.518966674804688 86.43659973144531,15.368423461914062 90.20005798339844,14.830795288085938 92.35060119628906,13.755523681640625 92.35060119628906,14.29315185546875 90.73768615722656,15.368423461914062 87.51188659667969,17.518966674804688 81.59791564941406,20.744766235351562 75.14628601074219,23.9705810546875 69.76994323730469,27.196380615234375 66.00651550292969,28.809280395507812 64.93122863769531,29.346923828125 65.46885681152344,29.346923828125 66.54414367675781,28.809280395507812 71.92048645019531,26.121109008789062 80.52262878417969,21.820037841796875 87.51188659667969,19.131866455078125 92.35060119628906,18.056594848632812 93.42585754394531,17.518966674804688 93.42585754394531,16.9813232421875 93.42585754394531,17.518966674804688 90.73768615722656,19.131866455078125 85.89897155761719,22.357666015625 80.52262878417969,25.04583740234375 73.53340148925781,29.884552001953125 71.92048645019531,30.959823608398438 71.38285827636719,30.959823608398438 72.45811462402344,30.959823608398438 76.22157287597656,29.346923828125 83.21080017089844,26.121109008789062 90.20005798339844,23.432937622070312 97.18931579589844,20.744766235351562 103.10328674316406,18.594223022460938 105.25382995605469,18.056594848632812 104.71617126464844,18.056594848632812 104.17854309082031,18.056594848632812 101.49037170410156,20.207138061523438 96.11402893066406,22.895309448242188 90.20005798339844,26.121109008789062 85.89897155761719,27.7340087890625 83.74842834472656,28.809280395507812 83.21080017089844,29.346923828125 83.74842834472656,29.346923828125 85.36134338378906,28.271652221679688 89.66242980957031,26.121109008789062 96.11402893066406,23.9705810546875 103.10328674316406,21.282394409179688 107.94200134277344,20.207138061523438 109.55488586425781,20.207138061523438 109.01725769042969,20.744766235351562 107.94200134277344,21.820037841796875 104.17854309082031,23.432937622070312 99.87748718261719,25.04583740234375 93.96348571777344,27.7340087890625 90.73768615722656,29.346923828125 88.58714294433594,29.884552001953125 88.04951477050781,30.42218017578125 88.58714294433594,30.42218017578125 89.66242980957031,29.884552001953125 94.50114440917969,27.7340087890625 101.49037170410156,26.65875244140625 107.40434265136719,26.121109008789062 110.09251403808594,26.121109008789062 111.16780090332031,26.121109008789062 110.63017272949219,27.196380615234375 109.01725769042969,27.7340087890625 103.10328674316406,30.959823608398438 93.96348571777344,33.64799499511719 85.89897155761719,35.79852294921875 79.98500061035156,36.87379455566406 77.83445739746094,36.87379455566406 78.37208557128906,36.87379455566406 80.52262878417969,36.33616638183594 85.89897155761719,33.64799499511719 89.66242980957031,32.572723388671875 93.42585754394531,30.959823608398438 96.65165710449219,30.42218017578125 99.33982849121094,28.809280395507812 100.95274353027344,28.809280395507812 102.56565856933594,28.809280395507812 103.10328674316406,28.271652221679688 103.64091491699219,28.271652221679688 103.10328674316406,28.271652221679688 98.26457214355469,30.42218017578125 93.42585754394531,32.572723388671875 89.66242980957031,34.18562316894531 87.51188659667969,35.260894775390625 86.97425842285156,35.260894775390625 87.51188659667969,35.260894775390625 88.04951477050781,35.260894775390625 91.81297302246094,34.7232666015625 99.33982849121094,32.03509521484375 108.47962951660156,28.271652221679688 114.93122863769531,26.65875244140625 116.54414367675781,26.121109008789062 115.46885681152344,26.65875244140625 111.70542907714844,29.346923828125 105.79145812988281,33.64799499511719 99.33982849121094,37.949066162109375 95.57640075683594,39.56196594238281 95.03877258300781,40.099609375 96.11402893066406,40.099609375 100.95274353027344,38.48670959472656 108.47962951660156,35.79852294921875 113.85597229003906,34.7232666015625 117.61940002441406,34.18562316894531 118.69468688964844,33.64799499511719 118.69468688964844,34.7232666015625 117.61940002441406,35.260894775390625 114.39360046386719,37.949066162109375 108.47962951660156,41.17488098144531 105.79145812988281,42.25013732910156 104.17854309082031,42.78778076171875 105.25382995605469,42.25013732910156 106.32908630371094,41.71250915527344 109.55488586425781,40.099609375 113.85597229003906,38.48670959472656 117.61940002441406,36.87379455566406 120.30757141113281,36.33616638183594 120.84523010253906,36.33616638183594 120.30757141113281,37.41143798828125 117.08177185058594,38.48670959472656 112.78068542480469,40.637237548828125 109.01725769042969,41.71250915527344 106.86671447753906,42.78778076171875 106.32908630371094,42.78778076171875 106.86671447753906,42.78778076171875 107.40434265136719,42.78778076171875 113.85597229003906,40.637237548828125 120.84523010253906,39.02433776855469 126.22157287597656,38.48670959472656 128.37208557128906,37.949066162109375 128.9097442626953,37.949066162109375 128.9097442626953,38.48670959472656 128.37208557128906,39.02433776855469 127.83445739746094,40.099609375 125.14628601074219,42.25013732910156 122.45811462402344,44.40068054199219 118.69468688964844,45.4759521484375 114.39360046386719,47.08885192871094 113.31834411621094,47.62648010253906 112.78068542480469,47.62648010253906 113.31834411621094,47.62648010253906 114.39360046386719,46.55122375488281 117.61940002441406,45.4759521484375 123.53340148925781,43.86305236816406 128.9097442626953,42.78778076171875 130.5226287841797,42.78778076171875 131.0602569580078,42.78778076171875 130.5226287841797,43.86305236816406 128.9097442626953,44.93830871582031 125.68391418457031,47.08885192871094 122.99574279785156,48.16412353515625 120.30757141113281,49.23939514160156 119.76994323730469,49.77702331542969 118.69468688964844,49.77702331542969 119.23231506347656,49.77702331542969 120.30757141113281,49.77702331542969 121.38285827636719,48.701751708984375 124.60865783691406,48.16412353515625 126.22157287597656,48.16412353515625 126.75920104980469,48.16412353515625 126.75920104980469,49.23939514160156 125.68391418457031,51.389923095703125 124.07102966308594,53.54046630859375 122.45811462402344,54.61573791503906 121.92048645019531,55.691009521484375 122.45811462402344,55.691009521484375 124.60865783691406,55.15336608886719 128.37208557128906,53.54046630859375 131.0602569580078,53.002838134765625 132.6731719970703,53.002838134765625 133.21080017089844,53.002838134765625 133.21080017089844,53.54046630859375 133.21080017089844,54.078094482421875 133.21080017089844,54.61573791503906 133.21080017089844,55.15336608886719 130.5226287841797,57.84153747558594 128.37208557128906,59.454437255859375 125.14628601074219,61.067352294921875 123.53340148925781,62.14262390136719 122.45811462402344,62.68025207519531 122.99574279785156,62.68025207519531 125.68391418457031,62.14262390136719 129.98500061035156,59.99208068847656 133.74842834472656,58.91680908203125 136.97425842285156,57.30390930175781 139.12477111816406,57.30390930175781 138.58714294433594,57.30390930175781 138.0495147705078,58.379180908203125 135.36134338378906,60.52970886230469 131.0602569580078,63.21788024902344 127.83445739746094,64.83079528808594 125.14628601074219,65.36842346191406 124.07102966308594,65.36842346191406 125.14628601074219,64.83079528808594 126.22157287597656,64.29315185546875 131.0602569580078,61.60498046875 137.5118865966797,58.91680908203125 142.35060119628906,56.766265869140625 145.0387725830078,56.2286376953125 145.0387725830078,57.30390930175781 143.96348571777344,58.91680908203125 141.2753143310547,61.067352294921875 136.97425842285156,64.29315185546875 129.44737243652344,67.51896667480469 126.75920104980469,68.59422302246094 125.14628601074219,69.13186645507812 126.75920104980469,68.05659484863281 131.59791564941406,65.36842346191406 139.12477111816406,61.60498046875 145.57640075683594,59.454437255859375 150.4151153564453,57.84153747558594 153.10328674316406,57.84153747558594 153.6409149169922,57.84153747558594 153.6409149169922,58.379180908203125 152.56565856933594,59.99208068847656 149.33982849121094,63.21788024902344 144.5011444091797,66.44369506835938 138.58714294433594,69.66949462890625 133.21080017089844,72.357666015625 129.44737243652344,73.97056579589844 127.83445739746094,75.04583740234375 127.29682922363281,75.04583740234375 128.37208557128906,73.97056579589844 132.6731719970703,71.28239440917969 137.5118865966797,68.05659484863281 143.4258575439453,65.90605163574219 147.18931579589844,64.83079528808594 149.8774871826172,63.21788024902344 150.4151153564453,63.21788024902344 149.8774871826172,63.755523681640625 147.18931579589844,65.90605163574219 142.35060119628906,68.59422302246094 133.74842834472656,71.82003784179688 129.98500061035156,72.89530944824219 129.44737243652344,72.89530944824219 129.98500061035156,72.89530944824219 131.0602569580078,72.357666015625 134.82371520996094,70.20713806152344 140.20005798339844,67.51896667480469 146.6516571044922,65.36842346191406 150.4151153564453,64.29315185546875 152.56565856933594,64.29315185546875 152.0279998779297,64.83079528808594 150.95274353027344,66.44369506835938 147.72694396972656,69.13186645507812 142.35060119628906,72.357666015625 138.0495147705078,75.04583740234375 135.36134338378906,76.65875244140625 134.2860870361328,77.19638061523438 133.74842834472656,77.7340087890625 134.82371520996094,77.7340087890625 139.6624298095703,74.50820922851562 146.11402893066406,70.74476623535156 151.49037170410156,69.13186645507812 155.7914581298828,68.05659484863281 156.32908630371094,68.05659484863281 156.32908630371094,68.59422302246094 155.2538299560547,70.74476623535156 150.4151153564453,75.04583740234375 145.0387725830078,77.7340087890625 140.20005798339844,79.88455200195312 136.4365997314453,81.49745178222656 134.82371520996094,82.03509521484375 134.82371520996094,82.57272338867188 135.36134338378906,82.03509521484375 139.6624298095703,79.346923828125 145.57640075683594,76.65875244140625 151.49037170410156,74.50820922851562 154.71617126464844,72.89530944824219 155.2538299560547,71.82003784179688 155.2538299560547,72.357666015625 153.6409149169922,74.50820922851562 149.33982849121094,78.27165222167969 143.4258575439453,83.1103515625 136.97425842285156,86.33616638183594 132.6731719970703,87.94906616210938 130.5226287841797,89.56196594238281 129.98500061035156,89.56196594238281 129.98500061035156,90.099609375 132.1355438232422,88.48670959472656 137.5118865966797,85.26089477539062 142.35060119628906,82.03509521484375 145.0387725830078,80.95982360839844 146.11402893066406,80.95982360839844 145.57640075683594,81.49745178222656 143.4258575439453,84.18562316894531 139.12477111816406,89.02433776855469 129.98500061035156,96.01358032226562 124.07102966308594,99.77702331542969 121.92048645019531,101.38992309570312 120.84523010253906,101.38992309570312 121.38285827636719,101.38992309570312 123.53340148925781,99.77702331542969 129.98500061035156,96.01358032226562 137.5118865966797,92.25013732910156 145.0387725830078,89.02433776855469 148.8022003173828,87.41143798828125 149.33982849121094,87.41143798828125 149.33982849121094,87.94906616210938 148.2645721435547,89.02433776855469 143.96348571777344,93.32540893554688 139.6624298095703,97.62648010253906 135.8989715576172,100.852294921875 133.21080017089844,102.46519470214844 132.6731719970703,103.00283813476562 134.2860870361328,101.38992309570312 139.12477111816406,96.55122375488281 145.0387725830078,90.63723754882812 149.8774871826172,85.79852294921875 151.49037170410156,84.18562316894531 151.49037170410156,83.64799499511719 151.49037170410156,84.7232666015625 149.33982849121094,87.94906616210938 144.5011444091797,93.32540893554688 136.4365997314453,99.23939514160156 131.59791564941406,101.92756652832031 129.44737243652344,102.46519470214844 127.83445739746094,103.54046630859375 127.29682922363281,103.54046630859375 127.29682922363281,103.00283813476562 127.83445739746094,102.46519470214844 130.5226287841797,98.70175170898438 134.82371520996094,93.32540893554688 139.12477111816406,87.41143798828125 142.8882293701172,84.18562316894531 143.96348571777344,83.1103515625 142.35060119628906,85.26089477539062 136.4365997314453,90.099609375 126.75920104980469,96.01358032226562 114.93122863769531,101.38992309570312 104.17854309082031,104.61573791503906 97.72694396972656,106.2286376953125 96.65165710449219,106.76626586914062 96.65165710449219,106.2286376953125 97.18931579589844,106.2286376953125 97.72694396972656,105.15336608886719 103.64091491699219,100.852294921875 108.47962951660156,98.16412353515625 113.85597229003906,96.55122375488281 117.08177185058594,96.55122375488281 118.69468688964844,96.55122375488281 118.69468688964844,98.70175170898438 116.54414367675781,101.38992309570312 112.78068542480469,105.15336608886719 107.94200134277344,108.91680908203125 103.10328674316406,112.14260864257812 99.33982849121094,113.75552368164062 98.80220031738281,113.75552368164062 99.33982849121094,112.68025207519531 100.95274353027344,111.06735229492188 106.86671447753906,104.07809448242188 113.31834411621094,98.16412353515625 119.23231506347656,93.32540893554688 122.99574279785156,91.71250915527344 124.07102966308594,91.17488098144531 124.07102966308594,91.71250915527344 124.07102966308594,93.32540893554688 123.53340148925781,95.4759521484375 117.61940002441406,105.15336608886719 112.24305725097656,111.06735229492188 109.55488586425781,113.75552368164062 106.86671447753906,115.36842346191406 106.32908630371094,115.36842346191406 107.94200134277344,113.75552368164062 113.31834411621094,108.91680908203125 121.38285827636719,104.07809448242188 128.37208557128906,99.77702331542969 134.2860870361328,96.55122375488281 137.5118865966797,95.4759521484375 136.4365997314453,98.16412353515625 132.6731719970703,103.00283813476562 127.29682922363281,109.45443725585938 122.99574279785156,113.75552368164062 120.30757141113281,115.36842346191406 119.23231506347656,115.90605163574219 119.23231506347656,116.44369506835938 121.38285827636719,113.21788024902344 125.68391418457031,109.45443725585938 130.5226287841797,105.69100952148438 133.21080017089844,104.07809448242188 134.82371520996094,103.54046630859375 135.8989715576172,103.54046630859375 135.8989715576172,104.61573791503906 133.21080017089844,108.37918090820312 128.37208557128906,113.21788024902344 123.53340148925781,116.44369506835938 118.69468688964844,119.13186645507812 118.15705871582031,119.66949462890625 118.15705871582031,119.13186645507812 118.69468688964844,118.05659484863281 119.76994323730469,116.9813232421875 124.60865783691406,111.60498046875 131.59791564941406,107.30390930175781 138.0495147705078,104.61573791503906 142.35060119628906,103.54046630859375 143.4258575439453,103.00283813476562 142.35060119628906,104.61573791503906 138.0495147705078,108.37918090820312 129.98500061035156,113.75552368164062 121.92048645019531,119.13186645507812 116.54414367675781,121.28239440917969 113.85597229003906,121.82003784179688 113.31834411621094,122.357666015625 112.78068542480469,122.357666015625 112.78068542480469,121.82003784179688 112.78068542480469,119.66949462890625 114.93122863769531,115.90605163574219 117.61940002441406,113.21788024902344 121.38285827636719,109.99208068847656 121.92048645019531,109.99208068847656 120.30757141113281,111.06735229492188 115.46885681152344,114.83079528808594 108.47962951660156,119.13186645507812 99.33982849121094,122.357666015625 91.27531433105469,124.50820922851562 86.43659973144531,126.12110900878906 85.36134338378906,126.12110900878906 85.36134338378906,125.58348083496094 85.89897155761719,125.04583740234375 88.58714294433594,121.28239440917969 93.42585754394531,116.44369506835938 99.33982849121094,112.14260864257812 104.17854309082031,109.99208068847656 107.40434265136719,108.91680908203125 107.40434265136719,109.45443725585938 105.25382995605469,111.60498046875 99.87748718261719,115.90605163574219 92.88822937011719,119.66949462890625 84.28608703613281,123.43293762207031 82.13554382324219,123.97056579589844 82.13554382324219,123.43293762207031 82.13554382324219,122.357666015625 85.36134338378906,118.59422302246094 91.27531433105469,113.75552368164062 96.65165710449219,109.99208068847656 99.87748718261719,108.91680908203125 99.87748718261719,109.99208068847656 97.18931579589844,114.83079528808594 92.88822937011719,120.74476623535156 88.58714294433594,125.04583740234375 85.36134338378906,126.65875244140625 83.21080017089844,127.7340087890625 82.13554382324219,128.2716522216797 81.59791564941406,128.2716522216797 81.59791564941406,127.7340087890625 81.59791564941406,125.58348083496094 81.59791564941406,121.28239440917969 83.74842834472656,117.51896667480469 86.43659973144531,114.83079528808594 86.97425842285156,114.29315185546875 86.97425842285156,115.36842346191406 84.28608703613281,118.59422302246094 79.44737243652344,122.89530944824219 75.68391418457031,125.04583740234375 72.99574279785156,125.58348083496094 71.92048645019531,125.58348083496094 71.38285827636719,125.58348083496094 70.84523010253906,124.50820922851562 70.84523010253906,121.82003784179688 72.45811462402344,117.51896667480469 75.68391418457031,113.75552368164062 78.37208557128906,112.14260864257812 79.98500061035156,112.14260864257812 79.98500061035156,113.21788024902344 77.83445739746094,116.44369506835938 73.53340148925781,120.20713806152344 64.93122863769531,123.97056579589844 55.25382614135742,126.65875244140625 52.56565475463867,126.65875244140625 52.02799606323242,126.65875244140625 52.02799606323242,126.12110900878906 52.02799606323242,125.58348083496094 52.02799606323242,122.89530944824219 54.71616744995117,120.74476623535156 56.8667106628418,119.13186645507812 59.55488204956055,118.59422302246094 60.09251022338867,118.05659484863281 60.63016891479492,118.05659484863281 60.63016891479492,118.59422302246094 60.63016891479492,120.20713806152344 60.63016891479492,122.357666015625 59.55488204956055,123.97056579589844 57.94199752807617,125.04583740234375 56.8667106628418,125.04583740234375 56.32908248901367,125.04583740234375 55.25382614135742,125.04583740234375 55.25382614135742,122.357666015625 55.25382614135742,119.13186645507812 56.8667106628418,116.44369506835938 60.63016891479492,113.75552368164062 64.39360046386719,113.21788024902344 67.08177185058594,113.21788024902344 67.61940002441406,113.21788024902344 67.61940002441406,114.29315185546875 66.54414367675781,116.44369506835938 62.78068161010742,121.28239440917969 60.09251022338867,125.04583740234375 57.94199752807617,126.12110900878906 55.25382614135742,126.65875244140625 54.17853927612305,126.65875244140625 53.1032829284668,126.12110900878906 51.4903678894043,124.50820922851562 50.95273971557617,120.74476623535156 50.95273971557617,115.90605163574219 53.64091110229492,112.68025207519531 59.01725387573242,110.52970886230469 64.93122863769531,109.45443725585938 68.69468688964844,109.45443725585938 69.76994323730469,109.45443725585938 69.76994323730469,109.99208068847656 69.76994323730469,110.52970886230469 68.15705871582031,112.68025207519531 63.8559684753418,115.90605163574219 57.94199752807617,119.13186645507812 50.41511154174805,121.28239440917969 47.7269401550293,121.28239440917969 47.18931198120117,121.28239440917969 47.18931198120117,120.74476623535156 47.18931198120117,120.20713806152344 47.18931198120117,117.51896667480469 47.7269401550293,114.83079528808594 49.87748336791992,112.14260864257812 53.1032829284668,111.06735229492188 54.71616744995117,110.52970886230469 55.25382614135742,110.52970886230469 55.25382614135742,111.06735229492188 55.25382614135742,111.60498046875 52.56565475463867,114.29315185546875 47.7269401550293,118.59422302246094 41.81296920776367,121.82003784179688 36.9742546081543,123.97056579589844 34.28608322143555,123.97056579589844 33.7484245300293,123.97056579589844 33.7484245300293,122.89530944824219 33.7484245300293,121.28239440917969 34.28608322143555,119.66949462890625 38.58713912963867,115.36842346191406 43.42585372924805,111.60498046875 47.7269401550293,108.91680908203125 52.02799606323242,107.30390930175781 53.1032829284668,107.30390930175781 53.1032829284668,107.84153747558594 51.4903678894043,109.99208068847656 48.26456832885742,113.21788024902344 45.03876876831055,115.36842346191406 42.3505973815918,116.44369506835938 41.27531051635742,116.44369506835938 40.7376823425293,116.44369506835938 40.7376823425293,115.90605163574219 41.27531051635742,114.29315185546875 43.42585372924805,109.99208068847656 47.7269401550293,106.2286376953125 51.4903678894043,102.46519470214844 54.71616744995117,100.852294921875 55.79145431518555,100.31466674804688 55.25382614135742,101.38992309570312 52.56565475463867,105.15336608886719 47.7269401550293,108.91680908203125 40.20005416870117,112.14260864257812 38.04951095581055,113.21788024902344 37.51188278198242,113.21788024902344 37.51188278198242,112.14260864257812 37.51188278198242,110.52970886230469 37.51188278198242,108.91680908203125 37.51188278198242,105.15336608886719 39.66242599487305,101.92756652832031 43.42585372924805,99.23939514160156 47.18931198120117,97.62648010253906 48.80219650268555,97.08885192871094 48.80219650268555,97.62648010253906 47.7269401550293,98.16412353515625 42.3505973815918,101.38992309570312 35.89896774291992,104.07809448242188 31.06025505065918,105.69100952148438 28.37208366394043,106.76626586914062 27.834455490112305,106.76626586914062 27.834455490112305,106.2286376953125 27.834455490112305,105.69100952148438 27.834455490112305,104.61573791503906 28.37208366394043,102.46519470214844 33.7484245300293,97.08885192871094 36.43659591674805,94.93830871582031 38.04951095581055,94.93830871582031 38.58713912963867,94.93830871582031 38.58713912963867,95.4759521484375 38.58713912963867,96.01358032226562 38.58713912963867,97.62648010253906 37.51188278198242,100.852294921875 34.82371139526367,103.54046630859375 32.67316818237305,105.69100952148438 32.13554000854492,106.2286376953125 31.06025505065918,106.2286376953125 31.06025505065918,105.69100952148438 31.06025505065918,104.61573791503906 31.06025505065918,101.92756652832031 31.59791374206543,98.16412353515625 36.43659591674805,93.32540893554688 42.3505973815918,90.099609375 47.18931198120117,88.48670959472656 50.41511154174805,87.41143798828125 52.02799606323242,87.41143798828125 52.02799606323242,87.94906616210938 52.02799606323242,88.48670959472656 51.4903678894043,89.56196594238281 46.1140251159668,94.93830871582031 39.66242599487305,98.70175170898438 33.7484245300293,100.852294921875 29.98499870300293,101.92756652832031 28.90974235534668,101.92756652832031 28.37208366394043,101.92756652832031 28.37208366394043,101.38992309570312 28.37208366394043,100.852294921875 29.98499870300293,98.16412353515625 34.82371139526367,93.86305236816406 41.81296920776367,90.099609375 49.33982467651367,87.41143798828125 49.87748336791992,87.41143798828125 47.7269401550293,89.02433776855469 42.88822555541992,92.25013732910156 36.43659591674805,96.01358032226562 29.447370529174805,99.23939514160156 22.458112716674805,101.92756652832031 19.769941329956055,102.46519470214844 19.769941329956055,100.852294921875 22.458112716674805,96.55122375488281 27.29682731628418,90.63723754882812 31.59791374206543,85.26089477539062 36.43659591674805,82.03509521484375 40.20005416870117,79.88455200195312 41.81296920776367,78.80928039550781 41.81296920776367,79.346923828125 41.81296920776367,82.03509521484375 40.20005416870117,86.33616638183594 33.7484245300293,92.25013732910156 27.29682731628418,94.93830871582031 21.382856369018555,96.55122375488281 17.61939811706543,97.08885192871094 16.54414176940918,97.08885192871094 16.54414176940918,96.55122375488281 16.54414176940918,96.01358032226562 16.54414176940918,94.40068054199219 18.694684982299805,91.71250915527344 25.146284103393555,89.02433776855469 34.28608322143555,85.26089477539062 41.27531051635742,83.64799499511719 44.50114059448242,83.64799499511719 44.50114059448242,84.18562316894531 42.3505973815918,86.33616638183594 37.51188278198242,89.56196594238281 29.98499870300293,92.25013732910156 22.99574089050293,93.32540893554688 20.30756950378418,93.86305236816406 19.769941329956055,93.86305236816406 19.769941329956055,93.32540893554688 19.769941329956055,92.25013732910156 21.382856369018555,89.56196594238281 25.68391227722168,85.26089477539062 32.13554000854492,81.49745178222656 37.51188278198242,79.346923828125 40.20005416870117,77.7340087890625 40.7376823425293,77.7340087890625 40.7376823425293,78.27165222167969 40.20005416870117,79.346923828125 36.43659591674805,82.57272338867188 29.447370529174805,86.87379455566406 19.769941329956055,90.63723754882812 17.081769943237305,91.17488098144531 17.081769943237305,90.63723754882812 17.081769943237305,86.87379455566406 17.61939811706543,81.49745178222656 21.382856369018555,76.12110900878906 25.146284103393555,73.43293762207031 28.90974235534668,71.82003784179688 31.06025505065918,71.28239440917969 32.67316818237305,71.28239440917969 33.21079635620117,71.28239440917969 33.7484245300293,71.82003784179688 34.28608322143555,73.43293762207031 34.28608322143555,75.58348083496094 32.13554000854492,77.7340087890625 27.29682731628418,79.88455200195312 21.92048454284668,80.95982360839844 19.23231315612793,80.95982360839844 18.694684982299805,80.95982360839844 18.694684982299805,80.42218017578125 18.694684982299805,79.88455200195312 18.694684982299805,78.80928039550781 22.458112716674805,76.12110900878906 26.22157096862793,73.97056579589844 29.447370529174805,71.82003784179688 32.67316818237305,71.28239440917969 33.7484245300293,70.74476623535156 34.28608322143555,70.74476623535156 33.7484245300293,70.74476623535156 31.06025505065918,72.89530944824219 24.071027755737305,76.12110900878906 17.61939811706543,78.27165222167969 14.393597602844238,79.346923828125 13.855969429016113,79.346923828125 13.855969429016113,78.80928039550781 14.931225776672363,77.19638061523438 20.30756950378418,73.43293762207031 28.37208366394043,68.05659484863281 34.82371139526367,65.36842346191406 38.04951095581055,63.21788024902344 39.1247673034668,62.68025207519531 38.04951095581055,64.29315185546875 34.28608322143555,67.51896667480469 27.834455490112305,71.82003784179688 21.382856369018555,75.04583740234375 17.61939811706543,76.12110900878906 16.54414176940918,76.65875244140625 16.54414176940918,76.12110900878906 16.54414176940918,75.04583740234375 16.54414176940918,73.97056579589844 18.15705680847168,70.20713806152344 21.92048454284668,65.36842346191406 29.447370529174805,60.52970886230469 35.3613395690918,58.379180908203125 38.58713912963867,57.84153747558594 39.66242599487305,57.84153747558594 39.66242599487305,59.454437255859375 36.43659591674805,62.14262390136719 30.522626876831055,66.44369506835938 24.071027755737305,70.20713806152344 20.30756950378418,71.28239440917969 19.769941329956055,71.82003784179688 19.769941329956055,71.28239440917969 20.30756950378418,68.05659484863281 24.071027755737305,62.14262390136719 29.98499870300293,55.15336608886719 36.43659591674805,49.23939514160156 41.27531051635742,46.55122375488281 43.42585372924805,45.4759521484375 43.42585372924805,44.93830871582031 43.42585372924805,45.4759521484375 43.42585372924805,47.62648010253906 41.27531051635742,49.77702331542969 30.522626876831055,62.14262390136719 22.99574089050293,68.59422302246094 17.61939811706543,72.89530944824219 16.006513595581055,73.97056579589844 17.61939811706543,72.357666015625 21.382856369018555,67.51896667480469 27.834455490112305,59.99208068847656 35.3613395690918,51.92756652832031 41.81296920776367,45.4759521484375 46.65165328979492,40.099609375 48.80219650268555,37.949066162109375 49.33982467651367,37.41143798828125 49.33982467651367,37.949066162109375 49.33982467651367,42.25013732910156 48.26456832885742,50.314666748046875 45.57639694213867,57.84153747558594 43.42585372924805,62.68025207519531 42.88822555541992,64.83079528808594 42.88822555541992,65.36842346191406 42.88822555541992,64.83079528808594 42.88822555541992,63.755523681640625 42.88822555541992,62.68025207519531 47.18931198120117,54.078094482421875 50.41511154174805,47.08885192871094 52.56565475463867,41.71250915527344 53.1032829284668,39.56196594238281 53.1032829284668,41.17488098144531 53.1032829284668,44.40068054199219 52.02799606323242,48.701751708984375 47.7269401550293,58.379180908203125 42.88822555541992,70.74476623535156 41.27531051635742,75.04583740234375 40.20005416870117,76.12110900878906 40.7376823425293,75.04583740234375 41.81296920776367,72.357666015625 45.03876876831055,65.90605163574219 47.7269401550293,62.14262390136719 48.80219650268555,59.99208068847656 48.80219650268555,60.52970886230469 48.80219650268555,64.83079528808594 48.80219650268555,71.82003784179688 46.65165328979492,79.346923828125 45.03876876831055,83.1103515625 45.03876876831055,85.26089477539062 45.03876876831055,85.79852294921875 45.03876876831055,85.26089477539062 46.1140251159668,80.95982360839844 49.87748336791992,73.43293762207031 53.1032829284668,68.59422302246094 53.64091110229492,66.44369506835938 53.64091110229492,66.9813232421875 53.64091110229492,69.66949462890625 53.64091110229492,75.58348083496094 53.64091110229492,82.03509521484375 53.64091110229492,87.41143798828125 53.64091110229492,91.17488098144531 53.64091110229492,93.32540893554688 53.64091110229492,93.86305236816406 53.64091110229492,92.78778076171875 54.71616744995117,87.94906616210938 56.32908248901367,82.03509521484375 56.32908248901367,77.7340087890625 56.32908248901367,76.12110900878906 56.32908248901367,75.58348083496094 56.32908248901367,76.65875244140625 54.71616744995117,77.7340087890625 52.02799606323242,80.42218017578125 43.96348190307617,87.94906616210938 29.98499870300293,99.23939514160156 25.146284103393555,102.46519470214844 22.99574089050293,103.54046630859375 22.99574089050293,104.07809448242188 22.99574089050293,103.54046630859375 22.99574089050293,102.46519470214844 22.99574089050293,100.852294921875 22.99574089050293,94.93830871582031 23.53339958190918,90.099609375 24.60865592956543,87.94906616210938 25.146284103393555,86.87379455566406 24.60865592956543,86.87379455566406 24.071027755737305,87.41143798828125 21.92048454284668,90.099609375 18.15705680847168,92.78778076171875 16.006513595581055,93.86305236816406 14.931225776672363,94.93830871582031 14.393597602844238,94.93830871582031 14.393597602844238,92.78778076171875 14.931225776672363,87.41143798828125 17.081769943237305,82.03509521484375 18.694684982299805,75.58348083496094 19.769941329956055,73.43293762207031 19.769941329956055,72.357666015625 19.23231315612793,72.89530944824219 17.081769943237305,76.12110900878906 13.855969429016113,79.88455200195312 12.243054389953613,82.03509521484375 11.705426216125488,82.57272338867188 11.705426216125488,79.346923828125 12.243054389953613,72.357666015625 13.318341255187988,64.29315185546875 15.468884468078613,57.84153747558594 16.54414176940918,55.15336608886719 16.54414176940918,54.078094482421875 16.54414176940918,53.54046630859375 16.54414176940918,55.15336608886719 16.006513595581055,56.766265869140625 14.393597602844238,61.067352294921875 10.630169868469238,66.44369506835938 8.479626655578613,69.66949462890625 7.941998481750488,71.28239440917969 7.941998481750488,70.74476623535156 9.017254829406738,68.05659484863281 12.243054389953613,62.14262390136719 15.468884468078613,56.766265869140625 19.23231315612793,51.92756652832031 21.92048454284668,47.08885192871094 25.146284103393555,43.325408935546875 26.22157096862793,41.17488098144531 24.60865592956543,44.93830871582031 19.769941329956055,54.078094482421875 13.855969429016113,63.21788024902344 10.092511177062988,68.59422302246094 9.554883003234863,69.66949462890625 10.630169868469238,66.44369506835938 15.468884468078613,58.379180908203125 20.30756950378418,49.77702331542969 27.29682731628418,40.099609375 29.98499870300293,36.33616638183594 33.21079635620117,34.18562316894531 35.3613395690918,33.1103515625 36.43659591674805,33.1103515625 36.9742546081543,33.1103515625 36.9742546081543,33.64799499511719 36.43659591674805,39.56196594238281 33.21079635620117,49.23939514160156 27.834455490112305,57.84153747558594 24.60865592956543,62.14262390136719 23.53339958190918,63.21788024902344 23.53339958190918,62.68025207519531 24.071027755737305,60.52970886230469 28.37208366394043,52.46519470214844 34.82371139526367,41.17488098144531 41.27531051635742,29.346923828125 47.18931198120117,20.744766235351562 49.33982467651367,16.443695068359375 49.87748336791992,15.906051635742188 49.87748336791992,16.443695068359375 49.87748336791992,17.518966674804688 49.87748336791992,20.744766235351562 49.33982467651367,30.959823608398438 46.1140251159668,41.17488098144531 41.27531051635742,51.92756652832031 39.66242599487305,54.61573791503906 40.7376823425293,50.852294921875 45.03876876831055,42.78778076171875 51.4903678894043,32.03509521484375 57.94199752807617,21.820037841796875 63.31834030151367,15.368423461914062 65.46885681152344,12.680252075195312 66.00651550292969,12.142623901367188 66.00651550292969,12.680252075195312 66.00651550292969,16.9813232421875 64.93122863769531,27.196380615234375 62.2430534362793,37.949066162109375 59.01725387573242,45.4759521484375 56.32908248901367,49.77702331542969 55.79145431518555,50.852294921875 55.79145431518555,49.23939514160156 57.40433883666992,44.40068054199219 62.2430534362793,33.64799499511719 67.08177185058594,25.583480834960938 70.84523010253906,20.744766235351562 72.99574279785156,17.518966674804688 73.53340148925781,16.443695068359375 73.53340148925781,16.9813232421875 73.53340148925781,18.056594848632812 72.45811462402344,19.131866455078125 67.61940002441406,23.9705810546875 65.46885681152344,25.04583740234375 61.70542526245117,26.65875244140625 60.63016891479492,26.65875244140625 60.63016891479492,25.583480834960938 63.8559684753418,23.432937622070312 69.76994323730469,19.66949462890625 77.83445739746094,17.518966674804688 85.36134338378906,16.443695068359375 89.12477111816406,16.443695068359375 89.66242980957031,16.443695068359375 89.66242980957031,16.9813232421875 89.66242980957031,18.056594848632812 88.58714294433594,22.357666015625 85.89897155761719,27.196380615234375 81.59791564941406,32.572723388671875 77.83445739746094,36.87379455566406 75.68391418457031,38.48670959472656 75.14628601074219,39.02433776855469 76.22157287597656,37.949066162109375 81.06025695800781,34.7232666015625 85.89897155761719,33.64799499511719 90.20005798339844,33.1103515625 93.42585754394531,33.1103515625 93.96348571777344,33.1103515625 95.03877258300781,33.1103515625 95.03877258300781,33.64799499511719 95.57640075683594,34.7232666015625 96.11402893066406,36.33616638183594 96.11402893066406,37.41143798828125 96.11402893066406,39.02433776855469 96.11402893066406,39.56196594238281 96.11402893066406,40.099609375 96.65165710449219,40.099609375 97.72694396972656,40.099609375 101.49037170410156,39.02433776855469 107.94200134277344,37.949066162109375 111.70542907714844,37.41143798828125 112.78068542480469,37.41143798828125 113.85597229003906,37.41143798828125 113.85597229003906,39.56196594238281 113.85597229003906,42.78778076171875 113.31834411621094,45.4759521484375 111.70542907714844,47.62648010253906 111.70542907714844,48.16412353515625 112.24305725097656,48.16412353515625 114.39360046386719,48.16412353515625 117.08177185058594,46.55122375488281 118.69468688964844,46.55122375488281 119.76994323730469,46.013580322265625 121.38285827636719,46.013580322265625 122.45811462402344,47.08885192871094 124.07102966308594,48.701751708984375 124.60865783691406,50.314666748046875 124.60865783691406,51.92756652832031 124.60865783691406,53.54046630859375 124.07102966308594,55.691009521484375 124.07102966308594,56.2286376953125 124.07102966308594,56.766265869140625 124.60865783691406,56.766265869140625 125.68391418457031,56.2286376953125 130.5226287841797,55.15336608886719 134.2860870361328,54.078094482421875 136.4365997314453,54.078094482421875 136.4365997314453,54.61573791503906 136.4365997314453,57.30390930175781 135.8989715576172,62.14262390136719 132.6731719970703,71.28239440917969 128.9097442626953,79.88455200195312 126.22157287597656,84.7232666015625 125.68391418457031,86.33616638183594 126.75920104980469,85.26089477539062 128.9097442626953,83.1103515625 132.1355438232422,81.49745178222656 133.21080017089844,80.95982360839844 133.21080017089844,82.03509521484375 133.21080017089844,84.7232666015625 129.98500061035156,89.56196594238281 124.60865783691406,96.01358032226562 118.69468688964844,100.31466674804688 114.93122863769531,103.54046630859375 114.39360046386719,104.07809448242188 117.61940002441406,104.07809448242188 126.22157287597656,104.07809448242188 138.0495147705078,101.38992309570312 147.18931579589844,99.23939514160156 150.4151153564453,98.70175170898438 150.95274353027344,98.16412353515625 150.95274353027344,98.70175170898438 150.95274353027344,99.23939514160156 148.8022003173828,101.92756652832031 145.0387725830078,106.2286376953125 139.12477111816406,110.52970886230469 134.2860870361328,113.21788024902344 129.98500061035156,114.83079528808594 128.37208557128906,115.36842346191406 128.9097442626953,114.83079528808594 129.98500061035156,113.75552368164062 134.2860870361328,111.60498046875 139.6624298095703,108.91680908203125 144.5011444091797,108.37918090820312 145.0387725830078,108.37918090820312 144.5011444091797,108.91680908203125 142.35060119628906,109.99208068847656 140.20005798339844,111.06735229492188 133.74842834472656,113.75552368164062 127.83445739746094,115.90605163574219 121.38285827636719,117.51896667480469 119.23231506347656,118.05659484863281 118.69468688964844,118.05659484863281 119.23231506347656,117.51896667480469 121.92048645019531,116.44369506835938 125.68391418457031,115.36842346191406 127.83445739746094,114.83079528808594 127.29682922363281,114.83079528808594 123.53340148925781,116.9813232421875 118.15705871582031,120.20713806152344 110.63017272949219,123.43293762207031 104.71617126464844,125.58348083496094 101.49037170410156,126.12110900878906 100.95274353027344,126.12110900878906 102.02799987792969,126.12110900878906 104.17854309082031,125.58348083496094 106.32908630371094,125.58348083496094 107.94200134277344,125.58348083496094 108.47962951660156,125.58348083496094 107.94200134277344,125.58348083496094 107.40434265136719,126.12110900878906 104.71617126464844,127.19638061523438 99.87748718261719,129.346923828125 94.50114440917969,129.88455200195312 90.20005798339844,129.88455200195312 87.51188659667969,129.88455200195312 86.43659973144531,129.88455200195312 85.36134338378906,129.88455200195312 84.82371520996094,129.346923828125 84.82371520996094,128.2716522216797 84.82371520996094,127.19638061523438 85.36134338378906,126.65875244140625 85.36134338378906,126.12110900878906 85.36134338378906,125.58348083496094 84.82371520996094,125.58348083496094 82.67317199707031,125.58348083496094 75.68391418457031,125.58348083496094 65.46885681152344,125.04583740234375 56.32908248901367,125.04583740234375 50.41511154174805,124.50820922851562 48.26456832885742,124.50820922851562 47.7269401550293,123.97056579589844 47.7269401550293,123.43293762207031 47.7269401550293,122.89530944824219 47.7269401550293,121.82003784179688 52.02799606323242,119.66949462890625 53.64091110229492,119.13186645507812 54.17853927612305,119.13186645507812 53.1032829284668,119.13186645507812 49.33982467651367,120.20713806152344 43.42585372924805,121.82003784179688 37.51188278198242,122.89530944824219 33.7484245300293,122.89530944824219 32.13554000854492,122.89530944824219 31.59791374206543,122.89530944824219 31.59791374206543,122.357666015625 31.59791374206543,121.82003784179688 31.59791374206543,120.74476623535156 32.13554000854492,119.13186645507812 33.21079635620117,118.05659484863281 33.7484245300293,118.05659484863281 33.21079635620117,118.05659484863281 32.13554000854492,118.05659484863281 31.06025505065918,118.05659484863281 28.37208366394043,117.51896667480469 26.759199142456055,117.51896667480469 25.146284103393555,116.9813232421875 25.146284103393555,115.90605163574219 25.146284103393555,115.36842346191406 25.146284103393555,113.75552368164062 26.22157096862793,111.60498046875 28.90974235534668,109.99208068847656 32.13554000854492,108.91680908203125 34.82371139526367,107.84153747558594 35.3613395690918,107.84153747558594 34.82371139526367,107.84153747558594 32.13554000854492,107.84153747558594 26.22157096862793,108.91680908203125 19.23231315612793,109.99208068847656 14.931225776672363,110.52970886230469 13.318341255187988,110.52970886230469 13.855969429016113,109.99208068847656 15.468884468078613,108.91680908203125 20.30756950378418,107.30390930175781 30.522626876831055,104.61573791503906 34.82371139526367,103.54046630859375 36.43659591674805,103.00283813476562 36.43659591674805,102.46519470214844 36.43659591674805,101.92756652832031 35.89896774291992,101.92756652832031 33.21079635620117,100.852294921875 27.834455490112305,99.23939514160156 21.92048454284668,97.08885192871094 19.23231315612793,96.01358032226562 17.61939811706543,95.4759521484375 17.61939811706543,94.93830871582031 17.61939811706543,93.32540893554688 17.61939811706543,91.71250915527344 17.61939811706543,89.56196594238281 18.694684982299805,87.94906616210938 20.84522819519043,86.33616638183594 21.92048454284668,85.79852294921875 20.84522819519043,85.79852294921875 19.769941329956055,85.79852294921875 18.15705680847168,85.79852294921875 17.081769943237305,85.26089477539062 16.54414176940918,84.7232666015625 16.54414176940918,84.18562316894531 16.006513595581055,83.64799499511719 16.006513595581055,83.1103515625 17.081769943237305,83.1103515625 22.458112716674805,84.7232666015625 31.06025505065918,85.26089477539062 38.04951095581055,85.79852294921875 39.1247673034668,85.79852294921875 38.58713912963867,85.79852294921875 36.43659591674805,86.33616638183594 32.13554000854492,86.87379455566406 25.146284103393555,87.94906616210938 18.694684982299805,89.56196594238281 14.393597602844238,90.099609375 12.243054389953613,90.099609375 11.705426216125488,90.099609375 12.243054389953613,90.099609375 12.780682563781738,90.099609375 13.318341255187988,90.099609375 13.855969429016113,90.099609375 " style="color: rgb(0, 182, 255);" class=""/><polyline fill="none" stroke="#00b6ff" stroke-width="2" stroke-linejoin="round" stroke-dashoffset="" fill-rule="nonzero" marker-start="" marker-mid="" marker-end="" id="svg_5" points="1,1 1,1 " style="color: rgb(0, 182, 255);" class=""/></g></svg>